<?xml version="1.0" encoding="UTF-8" standalone="no"?>
<svg id="svg4163" xmlns:rdf="http://www.w3.org/1999/02/22-rdf-syntax-ns#" xmlns="http://www.w3.org/2000/svg" height="924" viewBox="0 0 1920 924" width="1920" version="1.1" xmlns:cc="http://creativecommons.org/ns#" xmlns:dc="http://purl.org/dc/elements/1.1/">
<path id="path4713" d="m307.5 921.61c-85.22-16.66-142.04-90.79-141.88-185.11 0.0822-48.641-0.0778-48.455 84.725-98.416 78.201-46.071 67.894-36.922 72.222-64.115 13.02-81.84 31.64-129.3 62.92-160.47 39.9-39.74 90.83-51.16 118.66-26.61 5.56 4.91 5.85 4.96 5.85 1.11 0-3.4411-0.2719-3.3491 5.558-1.8811 11.623 2.9267 12.391 7.8918 5.4619 35.303-6.9856 27.633-10.306 33.537-19.748 35.107-5.8881 0.97928-6.433 1.3118-6.0915 3.7169 1.0337 7.2793 19.129-1.2066 24.429-11.456 2.3798-4.6021 12.384-46.914 12.388-52.391 0.006-9.1033-6.6419-15.336-18.027-16.902-6.137-0.84406-6.1547-1.2556-0.22021-5.1251 20.036-13.064 29.005-13.373 70.25-2.4175 32.307 8.5812 29.12 8.6256 36.842-0.51392 8.9054-10.54 44.175-28.257 54.258-27.256 2.7726 0.27534 0.65675 1.6285-16.205 10.364-21.561 11.17-23.126 12.757-17.2 17.435 4.7809 3.7738 10.644 2.5448 27.929-5.8546 24.68-12 28.12-14.54 24.74-18.27-1.59-1.77-1.55-1.86 0.86-1.86 7.6997 0-1.2164-9.5995-24.296-26.158-19.864-14.251-41.038-21.577-63.683-22.032-8.2547-0.16588-9.25-0.38426-9.25-2.0296 0-2.7598 1.6589-2.9798 14.235-1.8876 29.729 2.5819 50.886 12.797 82.59 39.876l4.9982 4.269 2.7496-8.269c7.0702-21.263 17.934-44.903 28.006-60.939 24.529-39.056 24.682-40.377 7.4429-64.321-30.84-42.82-46.56-119.35-28.51-138.76 4.9236-5.2942 15.698-2.6997 44.614 10.743 8.9993 4.1838 22.225 9.5741 29.39 11.978 27.856 9.3478 53.816 22.898 90.923 47.459 16.913 11.195 16.177 11.014 29.339 7.2077 19.443-5.623 45.972-6.6472 66.117-2.5524 9.9915 2.0309 9.9175 2.0811 13.203-8.9505 9.7767-32.828 10.832-53.671 3.9713-78.472-4.09-14.776-4.67-34.621-1.27-43.164 3.76-9.4326 14.16-11.972 34.69-8.4673 4.95 0.84522 11.7 2.0035 15 2.574 14.847 2.5664 35.333 11.14 51 21.342 20.91 13.617 29.542 22.601 67.306 70.051 33.979 42.694 45.647 54.441 62.98 63.405 61.464 31.787 100.18 74.416 129.06 142.09 13.917 32.618 19.099 48.116 21.733 65 3.3567 21.516 1.1387 17.169 22.783 44.652 18.471 23.453 41.914 61.777 64.137 104.85 19.338 37.478 36.508 65.926 55.529 92 21.033 28.832 24.836 35.517 35.264 62 15.549 39.485 26.175 91.881 23.7 116.86-0.6072 6.1279-1.3681 15.754-1.6907 21.392l-0.5866 10.25h176.64 176.64v3.5 3.5l-713.25-0.0376-713.25-0.0375 4-3.4476 4-3.4476 114.17-0.0149h114.17l-10.51-15.49c-10.66-15.73-15.08-20.49-25.83-27.85l-6-4.1065-21.5 0.2776c-34.035 0.43945-47.788-5.7117-57.867-25.881-8.1608-16.331-1.8218-21.322 8.2497-6.4953 15.512 22.836 29.107 28.475 58.153 24.12 6.0299-0.90392 11.689-1.7409 12.575-1.86 0.88634-0.11905 9.1816 6.5336 18.434 14.784 9.2523 8.25 24.007 21.188 32.787 28.75l15.965 13.75h238.53 238.53l-2.4243-2.5936c-6.7785-7.2518-21.381-16.445-48.458-30.508l-17.09-8.8762-12.44 3.881c-23.954 7.4732-57.622 12.951-80.936 13.169-19 0.17736-102.25-19.82-153.98-36.985-53.148-17.638-72.836-27.221-140.52-68.396-28.849-17.549-29.862-18.699-47.899-54.403-4.014-7.9454-6.515-11.715-8.584-12.937-2.5187-1.4879-2.9977-2.4887-3.4878-7.2878-4.99-49.23-21.35-88.21-50.8-121.11-27.68-30.92-49.34-42.13-81.69-42.28-24.815-0.11074-22.778-0.98113-89.25 38.127l-35.75 21.033v-5.2872c0-10.309-0.46147-11.134-6.3371-11.329-7.53-0.25-13.66 0.72-13.66 2.15 0 3.8542 5.5865 12.002 10.867 15.848 3.0983 2.257 5.8068 4.2434 6.0188 4.4141 0.212 0.17077-0.3505 1.4337-1.25 2.8065-2.1333 3.2559-2.0744 3.5664 0.67695 3.5664 8.9799 0 44.008 16.115 63.681 29.298 44.507 29.823 85.521 93.533 94.44 146.7 3.0525 18.198 3.0426 20.183-0.11547 23.124-5.8758 5.4704-36.586 29.942-37.024 29.503-0.25255-0.25255-1.1148-5.7776-1.9162-12.278-10.412-84.455-75.06-169.06-147.11-192.52-12.496-4.0686-12.842-2.8056 3.3422-12.212 15.134-8.7963 15.579-9.3123 12.483-14.464-4.09-6.77-11.09-21.47-11.09-23.25 0-2.3721-3.1601-4.4367-10.56-6.8992-5.9989-1.9963-9.5064-4.6792-10.76-8.23-0.78712-2.2302-0.75093-2.2259 6.3189 0.7497 16.661 7.0124 55.001 5.2082 55.001-2.5883 0-7.1498-15.212-24.881-27.26-31.774-7.5913-4.3433-8.7017-7.3558-3.2185-8.732 6.5164-1.6355 26.623 15.459 33.338 28.345 4.8573 9.3197 9.3178 8.2069 13.763-3.4337 2.2059-5.7761-0.29376-14.178-7.9726-26.798-2.6834-4.4101-6.2184-10.268-7.8554-13.018-6.1727-10.369-12.545-14.983-22.272-16.126-7.2362-0.85047-7.665-4.0377-0.8342-6.1996 5.4424-1.7225 8.8056-0.20482 17.791 8.0283l6.5637 6.0145 14.728-0.40082c22.333-0.60776 26.306-4.2121 17.261-15.656-28.478-36.028-97.518-11.622-133.36 47.145-25.369 41.593-36.546 82.588-36.657 134.44-0.0198 9.2758-2.3549 9.9669 29.465-8.7207 39.934-23.453 39.421-23.284 56.157-18.492 71.85 20.57 144.37 120.28 144.37 198.47v6.902l-6.75 5.8052c-3.7125 3.1929-27.45 22.654-52.75 43.246s-61.075 49.741-79.5 64.774c-61.164 49.905-79.297 57.537-118.5 49.875zm40.112-22.085c32.338-9.6032 22.607-87.135-17.707-141.09-36.388-48.704-113.34-81.242-139.61-59.033-6.7539 5.7091-12.624 22.265-10.815 30.501 0.93292 4.2476 3.5228 4.1006 3.5228-0.19986 0-4.3146 4.0536-12.34 9.1677-18.15 5.3312-6.0566 5.863-5.1406 1.9475 3.3542-23.332 50.62 33.519 153.87 95.487 173.42 17.256 5.4432 45.016 7.6658 54.359 4.3524 6.9284-2.4571 5.9323-1.2794-3.1412 3.714l-8.3197 4.5785 5.0685 0.0184c2.7877 0.0102 7.3073-0.64641 10.044-1.459zm-41.61-41.58c-62.76-16.34-106.21-107.27-71.17-148.93l2.9378-3.4936 8.865 2.8868c54.275 17.674 104.07 78.28 109.03 132.69 1.33 14.53-24.67 23.35-49.66 16.85zm-24.83-29.59c2.36-2.14 2.31-5.63-0.17-12.85-2.5716-7.4746-2.7243-7.072 2.5239-6.6546 14.68 1.1676 6.6268-21.676-10.874-30.845-6.1167-3.2046-7.9659-1.5635-7.4638 6.6238l0.31422 5.1238-5-1.4791c-2.75-0.8135-5.3065-1.6641-5.6811-1.8902-9.5811-5.7838-17.108 3.8122-11.322 14.435 11.736 21.548 29.745 34.708 37.675 27.532zm130.69 45.098c18.183-23.116-2.6112-96.043-42.544-149.21-39.022-51.954-103.64-90.384-129.71-77.141-8.6028 4.37-8.4982 4.5075 4.0708 5.3495 78.86 5.2825 164.86 110.6 164.8 201.81-0.0151 22.689 0.10313 23.36 3.3803 19.193zm963.41-59.813c8.0508-14.404 4.6005-19.324-19.302-27.519-24.22-8.3044-26.308-10.107-26.818-23.159-0.5623-14.376-17.69-24.067-65.869-37.269l-9.1974-2.5203-12.349 8.6684c-6.7921 4.7676-16.036 11.088-20.542 14.044-4.5063 2.9568-8.1932 5.7331-8.1932 6.1694 0 2.4892 10.654 12.001 17.675 15.779 10.884 5.8582 16.384 10.891 25.846 23.651 10.09 13.607 15.67 19.065 23.73 23.212l6.2492 3.2155 43.164 0.0485 43.164 0.0485 2.4422-4.3696zm184.42-0.56203c-1.393-11.762-8.5124-18.796-23.908-23.62-5.4393-1.7045-6.0334-2.2349-12.401-11.07-3.6784-5.104-7.4075-9.5505-8.287-9.8812-24.288-9.1325-39.402-22.459-41.106-36.244-2.5384-20.543-9.5353-28.35-33.332-37.193-24.996-9.2885-26.708-10.648-24.129-19.165 2.6686-8.8137-8.2561-15.901-43.032-27.917l-15-5.1829-10 0.58306c-5.5165 0.32164-17.15 2.1478-25.946 4.073-18.2 3.9832-19.185 3.928-10.405-0.58341 16.444-8.4494 27.322-12.868 31.68-12.868 1.5306 0 4.3143-1.1298 6.1859-2.5106 7.4581-5.5024 11.221-5.2201 24.279 1.8214 10.632 5.7336 12.164 6.0268 21.434 4.1022 18.635-3.8691 28.226-1.3597 47.709 12.483 11.889 8.4475 16.009 10.607 27.013 14.16 15.581 5.031 25.729 17.819 31.096 39.187 3.4856 13.876 38.784 46.623 42.585 39.506 0.6609-1.2375 2.4767-3.443 4.0352-4.9012 6.8184-6.3794-6.2606-48.192-30.431-97.287-12.889-26.18-13.881-27.119-23.876-22.583-5.8611 2.6595-7.7409 2.5395-16.693-1.0657-10.805-4.3518-14.943-3.8596-26.586 3.1621-13.671 8.2448-38.2 6.4935-49.58-3.5399-1.2444-1.097-3.0339-1.0875-10.5 0.0562-32.527 4.9825-85.79 12.452-86.16 12.083-0.2433-0.24334 4.868-3.2428 11.359-6.6655 15.013-7.917 18.042-10.237 20.33-15.575 3.4752-8.1074 27.724-15.499 58.971-17.975 38.742-3.0704 43.682-4.3875 58.589-15.62 10.57-7.9655 8.1336-18.418-13.333-57.192-3.0122-5.4406-6.3865-11.974-7.4983-14.519-2.9082-6.6563-13.725-25.856-15.307-27.168-4.549-3.7753-10.213 3.7845-19.135 25.541-6.1568 15.012-9.6335 20.427-20.78 32.363-10.52 11.265-11.914 13.332-15.696 23.28-6.1769 16.247-16.672 24.342-38.015 29.321-8.0669 1.8819-8.6368 2.3196-44.821 34.428-17.323 15.372-31.609 27.836-31.745 27.7-10.52-10.52 21.824-81.244 34.635-75.732 6.7949 2.9231 8.3333 2.171 21.059-10.295 5.8012-5.6828 12.078-11.106 13.949-12.052 7.059-3.5683 8.7256-6.3728 18.108-30.471 6.3241-16.243 9.9356-19.858 17.836-17.852 10.037 2.5477 16.006-6.9287 33.105-52.556 6.1635-16.447 6.1667-16.18-0.2474-21.225-7.9481-6.2518-20.098-6.2669-29.161-0.0362-7.005 4.8163-9.0937 3.599-8.7876-5.1215 0.305-8.692 1.1359-8.5774-9.1557-1.2632-16.399 11.655-68.499 15.347-88.849 6.2972-6.9473-3.0897-6.9101-2.5465-0.6126-8.9232 6.523-6.6049 6.1716-8.3608-1.6732-8.3608-5.1408 0-5.8783-0.29669-9.0212-3.6291l-3.4226-3.6291-7.7602 0.47995c-5.5391 0.34258-11.338 1.6925-20.26 4.7164-6.875 2.33-15.304 4.4831-18.732 4.7846l-6.2321 0.5482-3.7679-4.0285c-2.0723-2.2157-5.1667-5.6517-6.8765-7.6355-3-3.51-3.3-3.6-10.3-3.6-5.8296 0-8.5625-0.58799-14.391-3.0963-18.748-8.0681-22.528-7.8862-42.226 2.0318-8.5284 4.2942-15.268 7.0646-17.185 7.0646-6.888 0-7.4851 0.75545-11.569 14.636-12.098 41.121-27.427 53.597-75.96 61.82-20.185 3.4202-45.236 6.5433-52.485 6.5433-2.7171 0-4.8165 0.82166-7.2932 2.8544-15.321 12.575-23.645 3.2656-12.024-13.447 6.0021-8.6314 8.601-14.382 14.037-31.06 9.5424-29.274 15.369-35.673 47.009-51.624 21.741-10.961 54.518-16.336 94.5-15.496l13 0.27283 14.324-5.75c17.631-7.0777 20.404-7.2293 40.351-2.206 18.533 4.6673 39.59 6.8416 58.325 6.0226 49.874-2.1801 50.172-2.1602 57.073 3.8157 3.7342 3.2336 3.87 3.5535 2.7641 6.5092-1.3904 3.7159 0.2562 4.3206 3.127 1.1484 5.6231-6.2135 11.664-8.8227 21.653-9.3531 11.879-0.63075 16.891-2.8232 19.89-8.7002 2.261-4.432 4.8968-4.998 13.756-2.9541 37.463 8.643 14.9-67.41-34.127-115.03-50.48-49.035-55.283-54.492-61.889-70.333-1.644-3.9419-3.1438-7.3388-3.3329-7.5486-0.1892-0.20986-3.753 2.8022-7.9197 6.6934-15.514 14.488-25.371 14.569-47.124 0.38543-16.599-10.822-25.561-14.189-41.911-15.745l-7.0409-0.66979-3.6234 5.8704c-9.3662 15.175-14.622 18.542-22.931 14.692-10.176-4.7144-14.07-1.9778-28.945 20.343-29.14 43.725-49.176 59.511-63.432 49.977-12.144-8.1219-18.376-3.8978-28.092 19.041-9.1522 21.608-13.288 25.559-24.454 23.362-9.9734-1.9622-10.704-1.2813-39.11 36.432-18.716 24.849-29.916 37.5-33.2 37.5-7.9668 0-4.6988-20.208 6.9538-43 9.4523-18.488 15.342-25.284 49.834-57.5 7.6552-7.15 17.127-17.05 21.049-22 3.9216-4.95 10.624-13.406 14.895-18.79 14.442-18.208 26.796-23.268 31.022-12.706 4.1671 10.414 11.571 4.0809 17.281-14.783l2.8085-9.2783 6.5127-1.9022c3.5821-1.0462 12.363-3.5876 19.513-5.6476 16.767-4.8309 16.403-4.0327 6.1644-13.525-10.625-9.85-11.038-9.395 7.0888-7.8245l14.845 1.2862 5.7011-2.61c9.1396-4.1842-5.4121-15.872-34.537-27.74-16.414-6.6888 15.536 3.4766 40.677 12.942 6.0167 2.2652 11.345 3.9833 11.841 3.8181 1.1351-0.37836-4.0373-7.1965-24.079-31.74-19.11-23.403-19.225-22.732 1.4976-8.7608 11.076 7.467 18.592 11.842 21.844 12.713 3.5384 0.94814 6.3972 2.7191 9.9886 6.188 17.676 17.072 3.9262-28.256-19.304-63.64-28-42.829-47.7-57.49-77.2-57.49-22.735 0-28.029 8.7213-18.505 30.483 18.578 42.447 9.6071 91.293-22.821 124.26-18.737 19.047-19.093 20.029-3.1214 8.6111 24.041-17.187 39.449-17.198 39.482-0.0276l0.015 7.8242-5.75 6.0409c-3.1625 3.3225-16.95 15.083-30.638 26.134-27.41 22.129-39.37 32.895-42.762 38.492-1.2283 2.0268-3.9932 5.7101-6.1441 8.1851-4.8659 5.599-7.4021 10.487-8.7832 16.926-1.5341 7.1532-3.4045 8.9698-16.09 15.627-23.334 12.245-38.253 36.81-57.333 94.404-3.3246 10.035-3.169 10.251-7.4022-10.255-10.887-52.736-7.2459-74.124 15.14-88.937 21.952-14.526 23.087-18.059 11.336-35.271-9.9504-14.574-9.1684-17.859 6.4273-27.005 17.774-10.424 17.897-11.048 4.7679-24.222-11.404-11.443-11.712-11.588-14.893-7.0171-1.2435 1.7875-7.2899 8.498-13.436 14.912-15.93 16.68-16.93 19.24-13.4 34.36 3.7659 16.151 3.0106 18.655-7.3991 24.53-8.4514 4.7697-8.261 3.8541-10.602 50.97-1.9501 39.253-3.5101 44.85-11.068 39.713l-3.43-2.33 0.5-13.94c1.2903-35.973 0.54723-65.384-1.9022-75.291-3.2496-13.143-2.6892-19.813 2.7182-32.348 8.5876-19.907 3.4886-28.042-15.316-24.434l-4 0.76745 9.867-9.9526c10.264-10.353 19.56-16.786 25.604-17.718 7.6294-1.1769 10.749-2.5759 14.907-6.6862 7.9602-7.8678 10.51-17.01 5.3723-19.264-1.2375-0.54292-2.25-1.5059-2.25-2.14 0-10.328-41.545-40.578-87.271-63.544-7.594-3.8141-17.407-9.386-21.807-12.382-11.975-8.1542-14.676-6.8983-15.632 7.268-1.673 24.798 8.5455 57.17 36.743 116.4 6.1079 12.83 11.346 24.533 11.641 26.006 0.56839 2.842 0.31389 3.4473-18.66 44.379-19.677 42.448-27.364 62.921-26.812 71.412l0.3 4.58 11 1.8521c15.446 2.6007 16.227 1.4791-9.5 13.65-28.905 13.674-32.301 16.788-25.608 23.481 5.2093 5.2093 13.792 2.7899 46.171-13.016 15.36-7.49 17.44-9.23 17.44-14.56 0-4.8741 10.034 4.3889 14.081 13 1.6019 3.4079 4.2511 14.104 3.4933 14.104-18.498 0-26.928 5.2253-32.961 20.432-5.7635 14.526-4.1732 22.073 6.818 32.355 24.011 22.461 64.41 22.481 70.608 0.0352 2.9576-10.711 11.211-5.4181 19.452 12.475l3.3173 7.2029-1.2299 24.5-1.2299 24.5 2.3257 6.2728c3.0164 8.1359 2.9324 10.585-0.5537 16.14-2.6191 4.1729-2.9322 5.6496-3.4633 16.338l-0.58393 11.75h3.9233c2.1578 0 8.4056-0.70993 13.884-1.5776 11.106-1.7591 13.632-1.2114 14.738 3.1954 2.9884 11.907-9.1126 34.977-22.747 43.366-5.9741 3.6759-6.1534 5.5641-1.5991 16.84 11.567 28.637 30.091 42.57 60.752 45.696 25.063 2.5552 76.958-28.84 87.992-53.233 1.6884-3.7324 4.4343-8.4897 6.1021-10.572l3.0323-3.7856-6.3257 0.54156c-42.21 3.6137-45.064 3.7624-45.931 2.3944-1.7852-2.8178-3.977-2.4584 32.605-5.3467 68.368-5.3981 121.38-0.69029 158.5 14.077 20.703 8.2351 60.314-7.2297 94.442-36.871l3.9425-3.4242-0.2477-14.4c-0.8642-50.235-3.5069-53.224-37.041-41.9-22.1 7.4632-24.687 6.9898-34.894-6.3842-2.2992-3.0125-6.979-4.4862-14.519-4.5723-2.4574-0.028-4.9596-0.91523-7.0256-2.4911-6.1829-4.7159-16.522-8.717-28.881-11.177-12.981-2.5837-16.326-4.0596-17.763-7.8382-0.493-1.2969-4.4964-5.0983-8.8963-8.4477-17.699-13.473-6.2279-13.477 44.382-0.0158 38.879 10.341 53.478 11.801 83.298 8.3318 32.195-3.746 52.011 1.3835 46.884 12.136-2.6785 5.6169-2.2444 7.2297 2.2735 8.4463 4.0106 1.08 7.045 3.3121 7.045 5.1824 0 13.567 7.8918 9.8325 19.131-9.0528 6.898-11.591 13.61-20.118 15.835-20.118 2.0747 0-12.453 28.825-23.256 46.143-26.927 43.167-68.754 81.58-104.98 96.407-10.09 4.1302-10.518 2.7905 3.9477 12.361 13.398 8.8649 13.918 9.3454 11.914 11.009-1.0894 0.90414-3.0436-0.0456-9.2382-4.4901-4.321-3.1002-10.846-7.4129-14.5-9.5836l-6.6436-3.9469-11.357 1.6794c-12.9 1.9076-43.736 1.4371-60.697-0.92608l-9.3396-1.3013-11.16 4.0325c-6.1382 2.2179-18.585 7.8332-27.66 12.478-54.77 28.035-59.662 30.063-79 32.751-20.101 2.794-55.875 2.2574-69-1.035-25.431-6.3791-41.47-13.65-42.539-19.285-0.0215-0.11315-2.0465 0.51459-4.5 1.395-10.005 3.59-28.495 1.8306-40.61-3.8643l-4.2804-2.012-8.2852 6.0092c-4.5569 3.3051-11.632 8.5259-15.722 11.602-5.0108 3.7682-8.0282 5.4047-9.25 5.0169-13.106-4.1598 80.115 45.07 108.19 57.133 43.501 18.693 105.95 38.782 170.94 54.985l11.442 2.8528 19.058-2.7457c77.552-11.173 126.07-33.311 185.39-84.585 16.957-14.658 17.375-14.856 13.645-6.4553-1.6572 3.7324-2.4144 6.8603-2.0765 8.5786 0.4294 2.1836-0.087 3.1922-2.6841 5.2389-3.7008 2.9169-2.2793 3.2462 4.2299 0.97979 5.9167-2.0601 15.818-1.9877 20.687 0.15128 2.7523 1.2092 8.1928 1.8997 18.868 2.3944 18.08 0.83784 21.143 1.9414 31.102 11.203 13.541 12.593 15.193 13.68 25.732 16.932 15.18 4.6845 23.925 15.463 34.322 42.308 5.4136 13.977 6.0352 14.988 16.791 27.326l8.0526 9.2364 63.889 0.0136 63.889 0.0136-0.5841-4.9316zm-662.69-224.05c-3.0507-1.9289 11.597-13.765 26.086-21.079 57.241-28.895 189.64-43.989 292.65-33.362 5.3157 0.54839 10.181 4.4452 5.5 4.4054-0.4125-0.004-8.85-0.64983-18.75-1.4363-119.94-9.5278-259.55 12.279-296.65 46.336-3.6593 3.3586-6.8093 6.0997-7 6.0912-0.19067-0.008-1.0158-0.43838-1.8336-0.95546zm-124.51-139.85c-18.107-5.3926-34.437-19.623-33.292-29.011 0.3114-2.553 0.43035-2.4773 2.6288 1.6729 2.8669 5.4119 3.3377 5.0198 2.2482-1.8724l-0.85638-5.4174 7.6357 8.0359c14.514 15.274 22.38 18.774 42.385 18.855 7.0121 0.0285 12.74 0.27689 12.728 0.55189-0.30149 6.9861-19.97 11.207-33.477 7.1846zm6-15.077c-21.815-6.3609-38.666-25.113-30.471-33.909 13.169-14.136 55.902-1.3364 63.461 19.007 5.0616 13.623-11.585 21.143-32.99 14.901zm-85.5-50.953c0-2.3682 14.891-10.157 38.355-20.061 13.405-5.6586 13.877-5.7613 13.477-2.9373-0.72 5.11-51.83 27.79-51.83 23zm237.29-21.956c-2.2786-1.4481 23.297-30.294 41.212-46.48 47.227-42.672 96.131-65.012 186.5-85.195 9.075-2.0268 17.232-3.8864 18.126-4.1325 1.0115-0.27826 1.8208 0.29748 2.1414 1.5234 0.461 1.763-0.5009 2.1952-9.126 4.1006-117.1 25.867-170.91 54.206-226.37 119.2-10.404 12.194-10.479 12.26-12.487 10.984zm58.389-6.3262c-0.57679-2.2056-1.3514-1.8295 23.221-11.276 107.76-41.429 198.12-54.426 277.85-39.964 2.8671 0.52009 5.1057 4.4135 2.5 4.3482-0.4125-0.0103-7.5-0.90231-15.75-1.9822-84.546-11.066-172.41 3.7552-277.66 46.839-9.0539 3.7061-9.692 3.8339-10.162 2.035zm-25.18 312.04c21.377-2.6093 25.303-4.1812 77.5-31.028 11.275-5.7992 24.393-11.942 29.151-13.651l8.6509-3.107 19.53 0.59892c18.608 0.57064 38.91-0.70412 42.526-2.6702 2.0324-1.105-24.253-9.5215-38.857-12.442-31.905-6.3805-99.71-9.2836-92.084-3.9426 10.986 7.695-34.724 50.094-67.834 62.921-10.851 4.2036 0.1787 5.914 21.419 3.3215zm-117.47-20.88c1.3561-0.70734 2.5841-1.381 2.7287-1.497 0.14465-0.11598-1.3989-1.9675-3.4301-4.1146-2.0312-2.147-5.8721-8.5162-8.5354-14.154-5.7057-12.077-5.0108-11.673-7.6428-4.4542-2.4957 6.8448-7.4162 12.922-13.651 16.861-2.4748 1.5635-4.5005 3.3507-4.5015 3.9714-0.007 4.3209 28.043 7.0324 35.032 3.3865zm-106.49-114.27c-0.41807-25.438-1.0488-49.375-1.4016-53.194l-0.64-6.95-5.5-1.67c-3.025-0.91899-16.679-5.1404-30.342-9.3808-32.669-10.139-33.04-10.849 7.5762 14.497 9.21 5.74 16.95 11.12 17.22 11.94 0.39 1.23 12.55 88.89 12.55 90.51 0 0.27096 0.29322 0.49265 0.65159 0.49265 0.35838 0 0.30954-20.812-0.10852-46.25zm227.21-56.37c4.5375-0.30799 8.25-0.75782 8.25-0.99963 0-0.2418-1.8323-2.7577-4.0719-5.591-6.0874-7.7011-8.0084-12.176-10.426-24.29l-2.1958-11-3.1962 10.5c-1.7579 5.775-4.7517 15.105-6.6529 20.734-1.9012 5.6287-3.4567 10.639-3.4567 11.135 0 0.85848 2.8504 0.79448 21.75-0.48834zm38.892-3.3501c29.122-6.837 32.011-52.383 4.2808-67.476-13.592-7.3977-43.621 5.987-39.671 17.683 0.24119 0.71429 1.1162-0.0661 2.0148-1.7968 13.99-26.86 48.28-14.73 48.28 17.06 0 30.306-28.5 43.324-45.819 20.928-4.9778-6.4368-6.1715-5.4266-1.7428 1.475 9.633 15.012 13.814 16.562 32.704 12.127zm31.036-10.001c18.096-8.4799 35.489-37.557 34.02-56.872-0.6877-9.0432 0.8911-8.6167-27.668-7.4729-29.071 1.1643-27.731 0.67332-21.234 7.7829 12.299 13.457 15.923 34.692 8.7952 51.532-1.5132 3.575-2.9885 7.0625-3.2785 7.75-0.7901 1.8733 0.1362 1.6042 9.3644-2.7203zm-44.717-8.6653c8.5335-5.0409 7.9203-20.576-0.99019-25.085-10.896-5.5137-21.684 6.8955-16.591 19.085 2.9204 6.9896 11.151 9.7986 17.581 6.0002zm-345.43-14.27c-3.3921-3.2591-36.821-15.23-51.699-18.513-8.9066-1.9655-8.8123-0.69877-0.99494-13.363 5.9849-9.6956 5.9013-9.675-10.511 2.5951-12.779 9.5538-14.013 10.736-11.995 11.487 10.661 3.9658 77.193 19.709 75.2 17.794zm-153.4-7.48c3.5859-2.4367 7.8972-8.9979 6.6995-10.196-0.36449-0.36448-2.8086 1.2262-5.4314 3.5348-4.4679 3.9328-7.4446 4.056-3.9208 0.1623 2.5-2.76 2.01-3.11-4.4-3.11-7.0739 0-6.9025-0.44969-2.4693 6.4806 3.9943 6.2441 4.6305 6.4534 9.5194 3.1313zm42.176-56.292c11.349-1.4863 14.564-1.5301 27.848-0.37913 19.131 1.6576 19.267 1.2303 1.2142-3.8191-19.205-5.3716-22.639-5.3678-34.919 0.0391-14.574 6.4166-14.076 6.7698 5.8566 4.1591zm-535.23 446.18v-3.5h87.474 87.474l1.5257 2.9503c0.83912 1.6227 1.5257 3.1977 1.5257 3.5-0.01 0.3-40.06 0.55-89.01 0.55h-89v-3.5zm623.56-113.75c-0.26078-1.2375-0.97909-5.625-1.5962-9.75-12.195-81.509-80.628-162.04-156.94-184.67-1.4222-0.42184 7.4879-5.9028 54.471-33.508 44.374-26.072 54.87-28.752 85.227-21.764 35.841 8.2507 77.424 54.791 94.658 105.94 4.3815 13.005 11.941 51 10.147 51-0.0963 0-2.3119-0.7281-4.9236-1.618-22.424-7.6406-33.662 10.366-24.726 39.618 3.5209 11.526 7.182 6.8124-26.411 34.007-31.184 25.244-29.242 23.897-29.906 20.743zm22.44-339.24c0-0.69516 30.491-15.827 36.272-18 11.25-4.23 4.6048 0.18552-13.528 8.989-17.54 8.51-22.74 10.57-22.74 9.01z"/>
</svg>
