<?xml version="1.0"?>
<svg width="1920" height="924" xmlns="http://www.w3.org/2000/svg" xmlns:svg="http://www.w3.org/2000/svg" version="1.1">
 <g class="layer">
  <title>Layer 1</title>
  <path d="m307.86,921.61c-85.04,-16.66 -141.74,-90.79 -141.58,-185.11c0.08,-48.64 -0.08,-48.46 84.54,-98.42c78.05,-46.07 67.76,-36.92 72.08,-64.11c12.99,-81.84 31.57,-129.3 62.79,-160.47c39.82,-39.74 90.64,-51.16 118.41,-26.61c5.55,4.91 5.84,4.96 5.84,1.11c0,-3.44 -0.27,-3.35 5.55,-1.88c11.6,2.92 12.36,7.89 5.45,35.3c-6.98,27.63 -10.29,33.54 -19.71,35.11c-5.88,0.98 -6.42,1.31 -6.08,3.71c1.03,7.28 19.09,-1.2 24.38,-11.45c2.38,-4.6 12.35,-46.92 12.35,-52.39c0.01,-9.11 -6.63,-15.34 -17.98,-16.9c-6.13,-0.85 -6.15,-1.26 -0.22,-5.13c19.99,-13.06 28.94,-13.37 70.1,-2.42c32.23,8.58 29.06,8.63 36.76,-0.51c8.88,-10.54 44.08,-28.26 54.15,-27.26c2.76,0.28 0.65,1.63 -16.18,10.37c-21.52,11.17 -23.07,12.75 -17.16,17.43c4.77,3.78 10.63,2.55 27.87,-5.85c24.63,-12 28.06,-14.54 24.69,-18.27c-1.59,-1.77 -1.55,-1.86 0.86,-1.86c7.68,0 -1.22,-9.6 -24.24,-26.16c-19.83,-14.25 -40.95,-21.58 -63.56,-22.03c-8.23,-0.17 -9.23,-0.39 -9.23,-2.03c0,-2.76 1.66,-2.98 14.21,-1.89c29.67,2.58 50.77,12.8 82.42,39.88l4.99,4.27l2.73,-8.27c7.07,-21.27 17.9,-44.91 27.95,-60.94c24.48,-39.06 24.63,-40.38 7.42,-64.32c-30.78,-42.82 -46.46,-119.35 -28.45,-138.76c4.92,-5.3 15.67,-2.7 44.53,10.74c8.98,4.18 22.17,9.57 29.33,11.98c27.79,9.35 53.7,22.9 90.73,47.46c16.87,11.19 16.15,11.01 29.28,7.2c19.4,-5.62 45.87,-6.64 65.98,-2.55c9.97,2.03 9.89,2.08 13.17,-8.95c9.76,-32.83 10.81,-53.67 3.96,-78.47c-4.08,-14.78 -4.66,-34.62 -1.27,-43.16c3.75,-9.44 14.13,-11.98 34.62,-8.47c4.94,0.84 11.68,2 14.97,2.57c14.82,2.57 35.26,11.14 50.89,21.34c20.87,13.62 29.48,22.6 67.17,70.05c33.91,42.7 45.54,54.45 62.85,63.41c61.33,31.79 99.97,74.42 128.79,142.09c13.88,32.62 19.06,48.12 21.68,65c3.35,21.52 1.14,17.17 22.73,44.65c18.43,23.45 41.83,61.78 64.01,104.85c19.3,37.48 36.43,65.93 55.41,92c20.99,28.83 24.79,35.52 35.19,62c15.52,39.49 26.13,91.88 23.65,116.86c-0.6,6.13 -1.36,15.76 -1.69,21.39l-0.58,10.25l176.27,0l176.27,0l0,3.5l0,3.5l-711.76,-0.03l-711.76,-0.04l3.99,-3.45l3.99,-3.45l113.93,-0.01l113.93,0l-10.49,-15.49c-10.64,-15.73 -15.05,-20.49 -25.78,-27.85l-5.99,-4.11l-21.46,0.28c-33.97,0.44 -47.69,-5.71 -57.75,-25.88c-8.14,-16.33 -1.82,-21.32 8.23,-6.5c15.48,22.84 29.05,28.48 58.03,24.12c6.02,-0.9 11.67,-1.74 12.55,-1.86c0.88,-0.12 9.16,6.54 18.39,14.79c9.23,8.25 23.96,21.19 32.72,28.75l15.93,13.75l238.03,0l238.03,0l-2.41,-2.6c-6.77,-7.25 -21.34,-16.44 -48.36,-30.5l-17.05,-8.88l-12.41,3.88c-23.9,7.47 -57.5,12.95 -80.77,13.17c-18.96,0.18 -102.04,-19.82 -153.66,-36.99c-53.03,-17.63 -72.68,-27.22 -140.23,-68.39c-28.78,-17.55 -29.8,-18.7 -47.79,-54.4c-4.01,-7.95 -6.51,-11.72 -8.57,-12.94c-2.51,-1.49 -2.99,-2.49 -3.48,-7.29c-4.98,-49.23 -21.31,-88.21 -50.69,-121.11c-27.62,-30.92 -49.24,-42.13 -81.52,-42.28c-24.76,-0.11 -22.72,-0.98 -89.06,38.13l-35.68,21.03l0,-5.29c0,-10.31 -0.46,-11.13 -6.32,-11.33c-7.51,-0.25 -13.63,0.72 -13.63,2.15c0,3.86 5.57,12.01 10.84,15.85c3.09,2.26 5.8,4.25 6.01,4.42c0.21,0.17 -0.35,1.43 -1.25,2.8c-2.13,3.26 -2.07,3.57 0.68,3.57c8.96,0 43.92,16.11 63.55,29.3c44.42,29.82 85.34,93.53 94.24,146.7c3.04,18.2 3.03,20.18 -0.12,23.12c-5.86,5.47 -36.5,29.94 -36.94,29.5c-0.25,-0.25 -1.11,-5.77 -1.92,-12.27c-10.39,-84.46 -74.9,-169.06 -146.8,-192.52c-12.46,-4.07 -12.81,-2.81 3.34,-12.22c15.1,-8.79 15.55,-9.31 12.45,-14.46c-4.08,-6.77 -11.07,-21.47 -11.07,-23.25c0,-2.37 -3.15,-4.44 -10.54,-6.9c-5.99,-1.99 -9.49,-4.68 -10.74,-8.23c-0.79,-2.23 -0.75,-2.22 6.31,0.75c16.63,7.01 54.89,5.21 54.89,-2.59c0,-7.15 -15.18,-24.88 -27.2,-31.77c-7.57,-4.34 -8.68,-7.36 -3.21,-8.73c6.51,-1.64 26.56,15.46 33.27,28.34c4.85,9.32 9.3,8.21 13.73,-3.43c2.21,-5.78 -0.29,-14.18 -7.95,-26.8c-2.67,-4.41 -6.21,-10.27 -7.84,-13.02c-6.16,-10.37 -12.51,-14.98 -22.22,-16.12c-7.21,-0.85 -7.64,-4.04 -0.83,-6.2c5.43,-1.73 8.78,-0.21 17.75,8.02l6.55,6.02l14.7,-0.4c22.28,-0.61 26.26,-4.21 17.22,-15.66c-28.42,-36.03 -97.32,-11.62 -133.08,47.15c-25.32,41.59 -36.46,82.59 -36.58,134.44c-0.02,9.27 -2.35,9.96 29.41,-8.72c39.85,-23.46 39.34,-23.29 56.04,-18.5c71.7,20.57 144.07,120.28 144.07,198.47l0,6.91l-6.74,5.8c-3.71,3.2 -27.39,22.66 -52.64,43.25s-60.95,49.74 -79.33,64.77c-61.04,49.91 -79.13,57.54 -118.25,49.88l-0.04,-0.03zm40.03,-22.09c32.27,-9.6 22.56,-87.13 -17.66,-141.09c-36.31,-48.7 -113.1,-81.24 -139.32,-59.03c-6.75,5.71 -12.6,22.27 -10.8,30.5c0.93,4.25 3.51,4.1 3.51,-0.2c0,-4.31 4.05,-12.34 9.15,-18.15c5.32,-6.05 5.85,-5.14 1.95,3.36c-23.28,50.62 33.45,153.87 95.29,173.42c17.21,5.44 44.92,7.66 54.24,4.35c6.92,-2.46 5.93,-1.28 -3.13,3.71l-8.3,4.58l5.06,0.02c2.78,0.01 7.29,-0.65 10.03,-1.46l-0.01,-0.01zm-41.52,-41.58c-62.63,-16.34 -105.99,-107.27 -71.02,-148.93l2.93,-3.49l8.84,2.89c54.17,17.67 103.85,78.28 108.8,132.69c1.33,14.53 -24.62,23.35 -49.56,16.85l0,-0.01zm-24.78,-29.59c2.36,-2.14 2.31,-5.63 -0.17,-12.85c-2.56,-7.47 -2.71,-7.07 2.52,-6.65c14.65,1.17 6.61,-21.68 -10.86,-30.84c-6.1,-3.21 -7.94,-1.57 -7.44,6.62l0.31,5.12l-4.99,-1.48c-2.74,-0.81 -5.29,-1.66 -5.67,-1.89c-9.56,-5.78 -17.07,3.82 -11.3,14.44c11.72,21.55 29.68,34.71 37.59,27.53zm130.42,45.1c18.15,-23.11 -2.6,-96.04 -42.45,-149.21c-38.94,-51.95 -103.42,-90.38 -129.44,-77.14c-8.58,4.37 -8.48,4.51 4.06,5.35c78.7,5.28 164.52,110.6 164.46,201.81c-0.02,22.69 0.1,23.36 3.37,19.19zm961.4,-59.81c8.03,-14.4 4.59,-19.32 -19.26,-27.52c-24.17,-8.3 -26.26,-10.11 -26.76,-23.16c-0.56,-14.37 -17.65,-24.07 -65.73,-37.27l-9.17,-2.52l-12.32,8.67c-6.79,4.77 -16.01,11.09 -20.51,14.05c-4.49,2.95 -8.17,5.73 -8.17,6.16c0,2.49 10.64,12.01 17.64,15.78c10.86,5.86 16.35,10.89 25.79,23.65c10.07,13.61 15.64,19.07 23.68,23.22l6.24,3.21l43.08,0.05l43.07,0.05l2.43,-4.37zm184.04,-0.56c-1.39,-11.76 -8.49,-18.8 -23.86,-23.62c-5.43,-1.71 -6.02,-2.24 -12.37,-11.07c-3.67,-5.11 -7.38,-9.55 -8.26,-9.88c-24.24,-9.14 -39.33,-22.46 -41.02,-36.25c-2.53,-20.54 -9.52,-28.35 -33.26,-37.19c-24.95,-9.29 -26.65,-10.65 -24.08,-19.17c2.66,-8.81 -8.24,-15.9 -42.94,-27.91l-14.97,-5.19l-9.98,0.59c-5.51,0.32 -17.11,2.15 -25.9,4.07c-18.16,3.98 -19.14,3.93 -10.38,-0.58c16.41,-8.45 27.26,-12.87 31.61,-12.87c1.53,0 4.3,-1.13 6.17,-2.51c7.44,-5.5 11.2,-5.22 24.23,1.82c10.61,5.73 12.13,6.03 21.39,4.1c18.6,-3.87 28.17,-1.36 47.61,12.49c11.87,8.44 15.98,10.6 26.96,14.16c15.55,5.03 25.68,17.81 31.03,39.18c3.48,13.88 38.71,46.63 42.5,39.51c0.66,-1.24 2.46,-3.44 4.02,-4.9c6.81,-6.38 -6.25,-48.19 -30.37,-97.29c-12.86,-26.18 -13.85,-27.12 -23.82,-22.58c-5.85,2.66 -7.72,2.54 -16.67,-1.07c-10.78,-4.35 -14.91,-3.86 -26.52,3.16c-13.64,8.25 -38.12,6.5 -49.48,-3.54c-1.25,-1.09 -3.03,-1.08 -10.48,0.06c-32.46,4.98 -85.61,12.45 -85.98,12.08c-0.25,-0.24 4.86,-3.24 11.34,-6.66c14.98,-7.92 18,-10.24 20.29,-15.58c3.46,-8.1 27.66,-15.5 58.85,-17.97c38.66,-3.07 43.59,-4.39 58.47,-15.62c10.55,-7.97 8.11,-18.42 -13.31,-57.19c-3,-5.45 -6.37,-11.98 -7.48,-14.52c-2.89,-6.66 -13.69,-25.86 -15.27,-27.17c-4.54,-3.78 -10.2,3.78 -19.1,25.54c-6.14,15.01 -9.61,20.43 -20.74,32.36c-10.5,11.27 -11.89,13.33 -15.66,23.28c-6.17,16.25 -16.65,24.34 -37.94,29.32c-8.05,1.89 -8.62,2.32 -44.73,34.43c-17.28,15.37 -31.54,27.84 -31.67,27.7c-10.5,-10.52 21.77,-81.24 34.56,-75.73c6.79,2.92 8.31,2.17 21.02,-10.3c5.79,-5.68 12.05,-11.1 13.92,-12.05c7.05,-3.57 8.7,-6.37 18.07,-30.47c6.31,-16.24 9.91,-19.86 17.79,-17.85c10.02,2.55 15.98,-6.93 33.04,-52.56c6.15,-16.44 6.15,-16.18 -0.25,-21.22c-7.93,-6.25 -20.06,-6.27 -29.1,-0.04c-7,4.82 -9.07,3.6 -8.77,-5.12c0.31,-8.69 1.14,-8.58 -9.13,-1.26c-16.37,11.65 -68.36,15.34 -88.66,6.29c-6.94,-3.08 -6.9,-2.54 -0.62,-8.92c6.52,-6.6 6.17,-8.36 -1.67,-8.36c-5.13,0 -5.87,-0.3 -9,-3.63l-3.41,-3.63l-7.74,0.48c-5.53,0.35 -11.32,1.7 -20.22,4.72c-6.87,2.33 -15.28,4.48 -18.69,4.78l-6.23,0.55l-3.75,-4.03c-2.08,-2.21 -5.16,-5.65 -6.87,-7.63c-2.99,-3.51 -3.29,-3.6 -10.28,-3.6c-5.82,0 -8.54,-0.59 -14.36,-3.1c-18.71,-8.07 -22.48,-7.88 -42.14,2.03c-8.51,4.3 -15.24,7.07 -17.14,7.07c-6.88,0 -7.47,0.75 -11.55,14.63c-12.07,41.12 -27.37,53.6 -75.8,61.82c-20.15,3.42 -45.15,6.55 -52.38,6.55c-2.7,0 -4.8,0.82 -7.27,2.85c-15.29,12.58 -23.6,3.27 -11.99,-13.45c5.99,-8.63 8.58,-14.38 14,-31.06c9.53,-29.27 15.34,-35.67 46.91,-51.62c21.69,-10.96 54.41,-16.34 94.3,-15.5l12.97,0.28l14.3,-5.75c17.59,-7.08 20.36,-7.23 40.27,-2.21c18.49,4.67 39.51,6.84 58.2,6.02c49.78,-2.18 50.07,-2.16 56.95,3.82c3.73,3.23 3.86,3.55 2.76,6.51c-1.39,3.71 0.25,4.32 3.12,1.15c5.61,-6.22 11.64,-8.83 21.6,-9.36c11.86,-0.63 16.85,-2.82 19.85,-8.7c2.26,-4.43 4.89,-4.99 13.72,-2.95c37.39,8.64 14.87,-67.41 -34.05,-115.03c-50.37,-49.04 -55.17,-54.49 -61.76,-70.33c-1.65,-3.95 -3.14,-7.34 -3.32,-7.55c-0.19,-0.21 -3.75,2.8 -7.9,6.69c-15.49,14.49 -25.32,14.57 -47.03,0.39c-16.57,-10.82 -25.51,-14.19 -41.82,-15.75l-7.03,-0.67l-3.61,5.87c-9.35,15.18 -14.6,18.54 -22.88,14.69c-10.16,-4.71 -14.04,-1.97 -28.89,20.35c-29.08,43.72 -49.08,59.51 -63.3,49.97c-12.12,-8.12 -18.34,-3.89 -28.03,19.05c-9.14,21.6 -13.26,25.55 -24.41,23.36c-9.95,-1.96 -10.68,-1.28 -39.03,36.43c-18.67,24.85 -29.85,37.5 -33.13,37.5c-7.94,0 -4.69,-20.21 6.95,-43c9.43,-18.49 15.31,-25.28 49.73,-57.5c7.64,-7.15 17.09,-17.05 21.01,-22c3.91,-4.95 10.6,-13.41 14.86,-18.79c14.42,-18.21 26.74,-23.27 30.97,-12.71c4.15,10.42 11.55,4.08 17.24,-14.78l2.8,-9.28l6.5,-1.9c3.57,-1.05 12.33,-3.59 19.47,-5.65c16.74,-4.83 16.37,-4.03 6.16,-13.52c-10.61,-9.85 -11.02,-9.4 7.08,-7.83l14.81,1.29l5.69,-2.61c9.12,-4.18 -5.4,-15.87 -34.47,-27.74c-16.38,-6.69 15.51,3.48 40.6,12.94c6.01,2.27 11.33,3.98 11.82,3.82c1.14,-0.38 -4.03,-7.2 -24.03,-31.74c-19.07,-23.4 -19.18,-22.73 1.5,-8.76c11.06,7.47 18.55,11.84 21.79,12.71c3.53,0.95 6.39,2.72 9.97,6.19c17.64,17.07 3.92,-28.26 -19.26,-63.64c-27.94,-42.83 -47.6,-57.49 -77.04,-57.49c-22.69,0 -27.97,8.72 -18.47,30.48c18.54,42.45 9.59,91.3 -22.77,124.26c-18.69,19.05 -19.05,20.03 -3.11,8.61c23.99,-17.18 39.37,-17.19 39.4,-0.02l0.02,7.82l-5.74,6.04c-3.15,3.32 -16.91,15.08 -30.58,26.14c-27.35,22.12 -39.29,32.89 -42.67,38.49c-1.23,2.02 -3.98,5.71 -6.14,8.18c-4.85,5.6 -7.38,10.49 -8.76,16.93c-1.53,7.15 -3.39,8.97 -16.06,15.63c-23.28,12.24 -38.17,36.81 -57.21,94.4c-3.32,10.03 -3.16,10.25 -7.38,-10.26c-10.87,-52.73 -7.23,-74.12 15.11,-88.93c21.9,-14.53 23.03,-18.06 11.31,-35.27c-9.93,-14.58 -9.15,-17.86 6.42,-27.01c17.73,-10.42 17.86,-11.05 4.76,-24.22c-11.39,-11.44 -11.69,-11.59 -14.87,-7.02c-1.24,1.79 -7.27,8.5 -13.4,14.91c-15.9,16.68 -16.89,19.24 -13.37,34.36c3.75,16.16 3,18.66 -7.38,24.53c-8.43,4.77 -8.24,3.86 -10.58,50.97c-1.95,39.26 -3.5,44.85 -11.05,39.72l-3.42,-2.33l0.5,-13.94c1.29,-35.98 0.55,-65.39 -1.9,-75.29c-3.24,-13.15 -2.68,-19.82 2.71,-32.35c8.56,-19.91 3.47,-28.04 -15.29,-24.44l-3.99,0.77l9.85,-9.95c10.24,-10.35 19.52,-16.79 25.55,-17.72c7.61,-1.18 10.73,-2.57 14.88,-6.69c7.94,-7.86 10.49,-17.01 5.36,-19.26c-1.24,-0.54 -2.25,-1.51 -2.25,-2.14c0,-10.33 -41.46,-40.58 -87.09,-63.54c-7.58,-3.82 -17.37,-9.39 -21.76,-12.39c-11.95,-8.15 -14.64,-6.89 -15.6,7.27c-1.67,24.8 8.53,57.17 36.66,116.4c6.1,12.83 11.33,24.54 11.62,26.01c0.57,2.84 0.32,3.45 -18.62,44.38c-19.63,42.45 -27.3,62.92 -26.75,71.41l0.3,4.58l10.98,1.85c15.42,2.6 16.2,1.48 -9.48,13.65c-28.84,13.68 -32.23,16.79 -25.56,23.48c5.2,5.21 13.77,2.79 46.07,-13.01c15.33,-7.49 17.4,-9.23 17.4,-14.56c0,-4.88 10.02,4.39 14.06,13c1.6,3.4 4.24,14.1 3.48,14.1c-18.46,0 -26.87,5.23 -32.89,20.43c-5.76,14.53 -4.17,22.08 6.81,32.36c23.96,22.46 64.28,22.48 70.45,0.03c2.95,-10.71 11.2,-5.41 19.42,12.48l3.3,7.2l-1.23,24.5l-1.23,24.5l2.33,6.27c3.01,8.14 2.92,10.59 -0.55,16.14c-2.61,4.18 -2.93,5.65 -3.46,16.34l-0.58,11.75l3.91,0c2.16,0 8.39,-0.71 13.86,-1.58c11.08,-1.75 13.6,-1.21 14.7,3.2c2.98,11.91 -9.09,34.98 -22.69,43.37c-5.97,3.67 -6.15,5.56 -1.6,16.84c11.54,28.63 30.03,42.57 60.62,45.69c25.01,2.56 76.8,-28.84 87.81,-53.23c1.69,-3.73 4.43,-8.49 6.09,-10.57l3.03,-3.79l-6.32,0.54c-42.12,3.62 -44.97,3.77 -45.83,2.4c-1.79,-2.82 -3.97,-2.46 32.53,-5.35c68.23,-5.4 121.13,-0.69 158.17,14.08c20.67,8.23 60.19,-7.23 94.25,-36.87l3.93,-3.43l-0.25,-14.4c-0.86,-50.23 -3.5,-53.22 -36.96,-41.9c-22.05,7.47 -24.64,6.99 -34.82,-6.38c-2.3,-3.01 -6.97,-4.49 -14.49,-4.57c-2.45,-0.03 -4.95,-0.92 -7.02,-2.5c-6.17,-4.71 -16.49,-8.71 -28.82,-11.17c-12.95,-2.59 -16.3,-4.06 -17.72,-7.84c-0.5,-1.3 -4.49,-5.1 -8.88,-8.45c-17.66,-13.47 -6.22,-13.48 44.29,-0.01c38.8,10.34 53.37,11.8 83.13,8.33c32.13,-3.75 51.9,1.38 46.79,12.13c-2.67,5.62 -2.25,7.23 2.27,8.45c4,1.08 7.03,3.31 7.03,5.18c0,13.57 7.88,9.83 19.09,-9.05c6.89,-11.59 13.58,-20.12 15.81,-20.12c2.07,0 -12.42,28.83 -23.21,46.14c-26.86,43.17 -68.61,81.58 -104.76,96.41c-10.07,4.13 -10.49,2.79 3.94,12.36c13.37,8.87 13.89,9.35 11.9,11.01c-1.09,0.91 -3.04,-0.04 -9.22,-4.49c-4.31,-3.1 -10.83,-7.41 -14.47,-9.58l-6.64,-3.95l-11.33,1.68c-12.87,1.91 -43.65,1.44 -60.57,-0.93l-9.32,-1.3l-11.14,4.04c-6.13,2.21 -18.55,7.83 -27.6,12.47c-54.66,28.04 -59.54,30.07 -78.84,32.75c-20.06,2.8 -55.76,2.26 -68.86,-1.03c-25.38,-6.38 -41.38,-13.65 -42.45,-19.29c-0.02,-0.11 -2.05,0.52 -4.49,1.4c-9.98,3.59 -28.43,1.83 -40.53,-3.86l-4.27,-2.02l-8.26,6.01c-4.55,3.31 -11.62,8.53 -15.7,11.6c-5,3.77 -8,5.41 -9.23,5.02c-13.07,-4.16 79.95,45.07 107.96,57.13c43.41,18.7 105.73,38.79 170.58,54.99l11.43,2.85l19.01,-2.74c77.4,-11.18 125.81,-33.31 185,-84.59c16.92,-14.66 17.34,-14.85 13.62,-6.45c-1.66,3.73 -2.41,6.86 -2.08,8.57c0.43,2.19 -0.09,3.2 -2.67,5.24c-3.69,2.92 -2.28,3.25 4.22,0.98c5.9,-2.06 15.79,-1.98 20.64,0.15c2.75,1.21 8.18,1.9 18.83,2.4c18.04,0.84 21.11,1.94 31.04,11.2c13.52,12.6 15.17,13.68 25.69,16.93c15.15,4.69 23.87,15.47 34.25,42.31c5.4,13.98 6.02,14.99 16.76,27.33l8.03,9.23l63.76,0.02l63.76,0.01l-0.58,-4.93l-0.13,-0.05zm-661.31,-224.05c-3.04,-1.93 11.58,-13.77 26.04,-21.08c57.12,-28.9 189.24,-43.99 292.04,-33.36c5.3,0.55 10.16,4.44 5.49,4.4c-0.41,0 -8.83,-0.65 -18.71,-1.43c-119.69,-9.53 -259.01,12.28 -296.03,46.33c-3.65,3.36 -6.8,6.1 -6.99,6.09c-0.19,0 -1.02,-0.44 -1.84,-0.95zm-124.25,-139.85c-18.07,-5.39 -34.37,-19.63 -33.22,-29.01c0.31,-2.56 0.43,-2.48 2.62,1.67c2.86,5.41 3.33,5.02 2.25,-1.87l-0.86,-5.42l7.62,8.04c14.48,15.27 22.33,18.77 42.29,18.85c7,0.03 12.71,0.28 12.7,0.55c-0.3,6.99 -19.93,11.21 -33.41,7.19zm5.99,-15.08c-21.76,-6.36 -38.58,-25.11 -30.41,-33.91c13.14,-14.13 55.78,-1.33 63.33,19.01c5.05,13.62 -11.56,21.14 -32.92,14.9zm-85.32,-50.95c0,-2.37 14.86,-10.16 38.28,-20.06c13.37,-5.66 13.84,-5.76 13.44,-2.94c-0.72,5.11 -51.72,27.79 -51.72,23zm236.8,-21.96c-2.28,-1.45 23.25,-30.29 41.12,-46.48c47.13,-42.67 95.94,-65.01 186.11,-85.19c9.06,-2.03 17.2,-3.89 18.09,-4.14c1.01,-0.27 1.82,0.3 2.14,1.53c0.46,1.76 -0.5,2.19 -9.1,4.1c-116.86,25.87 -170.55,54.2 -225.9,119.2c-10.39,12.19 -10.46,12.26 -12.46,10.98zm58.27,-6.32c-0.58,-2.21 -1.35,-1.83 23.17,-11.28c107.54,-41.43 197.71,-54.43 277.27,-39.96c2.86,0.52 5.1,4.41 2.49,4.34c-0.41,-0.01 -7.48,-0.9 -15.72,-1.98c-84.36,-11.06 -172.05,3.76 -277.08,46.84c-9.03,3.71 -9.67,3.83 -10.14,2.04zm-25.13,312.04c21.34,-2.61 25.25,-4.19 77.34,-31.03c11.26,-5.8 24.34,-11.94 29.09,-13.65l8.63,-3.11l19.49,0.6c18.57,0.57 38.83,-0.71 42.44,-2.67c2.03,-1.11 -24.2,-9.52 -38.78,-12.44c-31.83,-6.38 -99.5,-9.29 -91.89,-3.95c10.96,7.7 -34.66,50.1 -67.7,62.92c-10.83,4.21 0.18,5.92 21.38,3.33zm-117.23,-20.88c1.36,-0.71 2.58,-1.39 2.72,-1.5c0.14,-0.12 -1.4,-1.97 -3.42,-4.12c-2.03,-2.14 -5.86,-8.51 -8.52,-14.15c-5.69,-12.08 -5,-11.67 -7.62,-4.45c-2.48,6.84 -7.39,12.92 -13.62,16.86c-2.46,1.56 -4.49,3.35 -4.49,3.97c-0.01,4.32 27.98,7.03 34.96,3.38l0,0.01zm-106.27,-114.27c-0.42,-25.44 -1.05,-49.38 -1.4,-53.2l-0.64,-6.95l-5.49,-1.67c-3.02,-0.92 -16.65,-5.14 -30.28,-9.38c-32.6,-10.14 -32.97,-10.85 7.55,14.5c9.19,5.74 16.91,11.12 17.18,11.94c0.39,1.23 12.52,88.89 12.52,90.51c0,0.27 0.3,0.49 0.66,0.49c0.35,0 0.3,-20.81 -0.11,-46.25l-0.01,0.01zm226.74,-56.37c4.53,-0.31 8.23,-0.76 8.23,-1c0,-0.25 -1.83,-2.76 -4.06,-5.59c-6.08,-7.71 -7.99,-12.18 -10.41,-24.29l-2.19,-11l-3.19,10.5c-1.76,5.77 -4.74,15.1 -6.64,20.73c-1.9,5.63 -3.45,10.64 -3.45,11.13c0,0.86 2.84,0.8 21.7,-0.48zm38.81,-3.35c29.07,-6.84 31.94,-52.39 4.27,-67.48c-13.56,-7.4 -43.53,5.99 -39.59,17.68c0.24,0.72 1.12,-0.06 2.02,-1.79c13.96,-26.86 48.18,-14.73 48.18,17.06c0,30.3 -28.44,43.32 -45.72,20.92c-4.97,-6.43 -6.16,-5.42 -1.74,1.48c9.61,15.01 13.78,16.56 32.63,12.13l-0.05,0zm30.98,-10.01c18.06,-8.48 35.42,-37.55 33.95,-56.87c-0.69,-9.04 0.89,-8.61 -27.61,-7.47c-29.01,1.16 -27.67,0.67 -21.19,7.78c12.27,13.46 15.89,34.69 8.77,51.53c-1.51,3.58 -2.98,7.07 -3.27,7.75c-0.79,1.88 0.14,1.61 9.35,-2.72zm-44.63,-8.66c8.52,-5.04 7.9,-20.58 -0.99,-25.09c-10.87,-5.51 -21.63,6.9 -16.56,19.09c2.91,6.99 11.13,9.8 17.54,6zm-344.71,-14.27c-3.38,-3.26 -36.74,-15.23 -51.59,-18.51c-8.88,-1.97 -8.79,-0.7 -0.99,-13.37c5.97,-9.69 5.89,-9.67 -10.49,2.6c-12.75,9.55 -13.99,10.73 -11.97,11.49c10.64,3.96 77.04,19.7 75.04,17.79zm-153.08,-7.48c3.58,-2.44 7.88,-9 6.69,-10.2c-0.36,-0.36 -2.8,1.23 -5.42,3.54c-4.46,3.93 -7.42,4.05 -3.91,0.16c2.49,-2.76 2.01,-3.11 -4.39,-3.11c-7.06,0 -6.89,-0.45 -2.46,6.48c3.98,6.25 4.62,6.45 9.5,3.13zm42.09,-56.29c11.33,-1.49 14.53,-1.53 27.79,-0.38c19.09,1.66 19.22,1.23 1.21,-3.82c-19.16,-5.37 -22.59,-5.37 -34.85,0.04c-14.54,6.41 -14.04,6.77 5.85,4.16zm-534.11,446.18l0,-3.5l87.29,0l87.3,0l1.52,2.95c0.84,1.62 1.53,3.2 1.53,3.5c-0.01,0.3 -39.98,0.55 -88.82,0.55l-88.81,0l0,-3.5l0.01,0zm622.26,-113.75c-0.26,-1.24 -0.98,-5.63 -1.6,-9.75c-12.16,-81.51 -80.46,-162.04 -156.61,-184.67c-1.42,-0.42 7.47,-5.91 54.36,-33.51c44.29,-26.07 54.76,-28.75 85.05,-21.76c35.77,8.25 77.26,54.79 94.46,105.94c4.37,13 11.92,51 10.12,51c-0.09,0 -2.31,-0.73 -4.91,-1.62c-22.37,-7.64 -33.59,10.36 -24.67,39.62c3.51,11.52 7.17,6.81 -26.36,34c-31.12,25.25 -29.18,23.9 -29.84,20.75zm22.39,-339.24c0,-0.7 30.43,-15.83 36.19,-18c11.23,-4.23 4.59,0.18 -13.5,8.99c-17.5,8.51 -22.69,10.57 -22.69,9.01z" fill="#00ffff" id="path4713"/>
 </g>
</svg>