<?xml version="1.0" encoding="iso-8859-1"?>
<!-- Uploaded to: SVG Repo, www.svgrepo.com, Generator: SVG Repo Mixer Tools -->
<svg version="1.1" id="Layer_1" xmlns="http://www.w3.org/2000/svg" xmlns:xlink="http://www.w3.org/1999/xlink" 
	 viewBox="0 0 512 512" xml:space="preserve">
<g transform="translate(1 1)">
	<path style="fill:#FFE100;" d="M307.907,472.6H202.093c-3.413,0-6.827-2.56-6.827-6.827V359.96c0-3.413,2.56-6.827,6.827-6.827
		H308.76c3.413,0,6.827,2.56,6.827,6.827v106.667C314.733,470.04,312.173,472.6,307.907,472.6"/>
	<path style="fill:#63D3FD;" d="M280.6,412.867c0,14.507-11.093,25.6-25.6,25.6c-14.507,0-25.6-11.093-25.6-25.6
		c0-14.507,11.093-25.6,25.6-25.6C269.507,387.267,280.6,398.36,280.6,412.867"/>
	<g>
		<path style="fill:#FFE100;" d="M229.4,353.133h51.2V319h-51.2V353.133z"/>
		<path style="fill:#FFE100;" d="M280.6,208.067c-5.12,0-8.533-3.413-8.533-8.533v-51.2c0-5.12,3.413-8.533,8.533-8.533
			s8.533,3.413,8.533,8.533v51.2C289.133,204.653,285.72,208.067,280.6,208.067z"/>
		<path style="fill:#FFE100;" d="M246.467,208.067c-5.12,0-8.533-3.413-8.533-8.533V165.4c0-5.12,3.413-8.533,8.533-8.533
			c5.12,0,8.533,3.413,8.533,8.533v34.133C255,204.653,251.587,208.067,246.467,208.067z"/>
		<path style="fill:#FFE100;" d="M144.067,71.533H7.533C2.413,71.533-1,68.12-1,63s3.413-8.533,8.533-8.533h136.533
			c5.12,0,8.533,3.413,8.533,8.533S149.187,71.533,144.067,71.533z"/>
		<path style="fill:#FFE100;" d="M502.467,71.533H365.933c-5.12,0-8.533-3.413-8.533-8.533s3.413-8.533,8.533-8.533h136.533
			c5.12,0,8.533,3.413,8.533,8.533S507.587,71.533,502.467,71.533z"/>
	</g>
	<path style="fill:#FECC00;" d="M109.933,489.667h2.56c-5.973,0-11.093-5.12-11.093-11.093V447h17.067v31.573
		C118.467,484.547,115.907,489.667,109.933,489.667"/>
	<path style="fill:#FFFFFF;" d="M101.4,478.573V447H84.333v31.573c0,5.973,5.12,11.093,11.093,11.093h11.947
		c0.853,0,1.707,0,2.56-0.853C104.813,487.96,101.4,483.693,101.4,478.573"/>
	<path style="fill:#FECC00;" d="M400.067,489.667h-2.56c5.973,0,11.093-5.12,11.093-11.093V447h-17.067v31.573
		C391.533,484.547,394.093,489.667,400.067,489.667"/>
	<path style="fill:#FFA800;" d="M408.6,478.573V447h17.067v31.573c0,5.973-5.12,11.093-11.093,11.093h-11.947
		c-0.853,0-1.707,0-2.56-0.853C405.187,487.96,408.6,483.693,408.6,478.573"/>
	<path style="fill:#FECC00;" d="M178.2,293.4c-28.16,0-76.8,82.773-76.8,153.6h17.067c0-70.827,48.64-128,76.8-128"/>
	<path style="fill:#FFFFFF;" d="M161.133,301.08v-7.68c-28.16,0-76.8,82.773-76.8,153.6H101.4
		C101.4,388.973,133.827,323.267,161.133,301.08"/>
	<path style="fill:#FECC00;" d="M331.8,293.4c28.16,0,76.8,82.773,76.8,153.6h-17.067c0-70.827-48.64-128-76.8-128"/>
	<path style="fill:#FFA800;" d="M348.867,301.08v-7.68c28.16,0,76.8,82.773,76.8,153.6H408.6
		C408.6,388.973,376.173,323.267,348.867,301.08"/>
	<path style="fill:#FFE100;" d="M313.88,319H170.52c-5.12,0-9.387-4.267-9.387-9.387V208.92c0-5.12,4.267-9.387,9.387-9.387h143.36
		c5.12,0,9.387,4.267,9.387,9.387v100.693C323.267,314.733,319,319,313.88,319"/>
	<path style="fill:#FFA800;" d="M339.48,199.533h-25.6c5.12,0,9.387,4.267,9.387,9.387v100.693c0,5.12-4.267,9.387-9.387,9.387h25.6
		c5.12,0,9.387-4.267,9.387-9.387V208.92C348.867,203.8,344.6,199.533,339.48,199.533"/>
	<g>
		<path style="fill:#FECC00;" d="M161.133,293.4l-68.267-59.733v-51.2l68.267,51.2V293.4z"/>
		<path style="fill:#FECC00;" d="M348.867,293.4l68.267-59.733v-51.2l-68.267,51.2V293.4z"/>
	</g>
	<g>
		<path style="fill:#FFE100;" d="M75.8,301.933L75.8,301.933c-9.387,0-17.067-7.68-17.067-17.067V148.333
			c0-9.387,7.68-17.067,17.067-17.067s17.067,7.68,17.067,17.067v136.533C92.867,294.253,85.187,301.933,75.8,301.933"/>
		<path style="fill:#FFE100;" d="M434.2,301.933L434.2,301.933c-9.387,0-17.067-7.68-17.067-17.067V148.333
			c0-9.387,7.68-17.067,17.067-17.067s17.067,7.68,17.067,17.067v136.533C451.267,294.253,443.587,301.933,434.2,301.933"/>
		<path style="fill:#FFE100;" d="M428.227,88.6h11.947c5.973,0,11.093-5.12,11.093-11.093v-46.08c0-5.973-5.12-11.093-11.093-11.093
			h-11.947c-5.973,0-11.093,5.12-11.093,11.093v46.08C417.133,83.48,422.253,88.6,428.227,88.6"/>
		<path style="fill:#FFE100;" d="M81.773,88.6H69.827c-5.973,0-11.093-5.12-11.093-11.093v-46.08c0-5.973,5.12-11.093,11.093-11.093
			h11.947c5.973,0,11.093,5.12,11.093,11.093v46.08C92.867,83.48,87.747,88.6,81.773,88.6"/>
	</g>
	<path d="M339.48,327.533H170.52c-10.24,0-17.92-7.68-17.92-17.92V208.92c0-10.24,7.68-17.92,17.92-17.92h168.96
		c10.24,0,17.92,7.68,17.92,17.92v100.693C357.4,319.853,349.72,327.533,339.48,327.533z M170.52,208.067
		C169.667,208.067,169.667,208.067,170.52,208.067l-0.853,101.547c0,0.853,0,0.853,0.853,0.853h168.96c0.853,0,0.853,0,0.853-0.853
		V208.92c0-0.853,0-0.853-0.853-0.853H170.52z"/>
	<path d="M169.667,312.173l-85.333-74.24V165.4l85.333,64V312.173z M101.4,229.4l51.2,44.373V237.08l-51.2-37.547V229.4z"/>
	<path d="M75.8,310.467c-14.507,0-25.6-11.093-25.6-25.6V148.333c0-14.507,11.093-25.6,25.6-25.6s25.6,11.093,25.6,25.6v136.533
		C101.4,299.373,90.307,310.467,75.8,310.467z M75.8,139.8c-5.12,0-8.533,3.413-8.533,8.533v136.533c0,5.12,3.413,8.533,8.533,8.533
		c5.12,0,8.533-3.413,8.533-8.533V148.333C84.333,143.213,80.92,139.8,75.8,139.8z"/>
	<path d="M81.773,97.133H69.827C58.733,97.133,50.2,88.6,50.2,77.507v-46.08c0-11.093,8.533-19.627,19.627-19.627h11.947
		c11.093,0,19.627,8.533,19.627,19.627v46.08C101.4,88.6,92.867,97.133,81.773,97.133z M69.827,28.867
		c-1.707,0-2.56,0.853-2.56,2.56v46.08c0,1.707,0.853,2.56,2.56,2.56h11.947c1.707,0,2.56-0.853,2.56-2.56v-46.08
		c0-1.707-0.853-2.56-2.56-2.56H69.827z"/>
	<path d="M144.067,63H7.533C2.413,63-1,59.587-1,54.467s3.413-8.533,8.533-8.533h136.533c5.12,0,8.533,3.413,8.533,8.533
		S149.187,63,144.067,63z"/>
	<rect x="67.267" y="88.6" width="17.067" height="42.667"/>
	<path d="M107.373,498.2H95.427c-11.093,0-19.627-8.533-19.627-19.627v-40.107H127v40.107C127,489.667,118.467,498.2,107.373,498.2z
		 M92.867,455.533v23.04c0,1.707,0.853,2.56,2.56,2.56h11.947c1.707,0,2.56-0.853,2.56-2.56v-23.04H92.867z"/>
	<path d="M127,455.533H75.8V447c0-69.973,48.64-162.133,85.333-162.133h8.533v25.6v0.853l33.28-0.853h0.853v17.067
		c-22.187,0-76.8,52.053-76.8,119.467V455.533z M92.867,438.467h17.067c2.56-46.933,29.013-88.747,56.32-110.933
		c-8.533-1.707-13.653-7.68-13.653-17.067v-5.12C131.267,319.853,96.28,380.44,92.867,438.467z"/>
	<path d="M289.133,361.667h-68.267v-51.2h68.267V361.667z M237.933,344.6h34.133v-17.067h-34.133V344.6z"/>
	<path d="M307.907,481.133H202.093c-8.533,0-15.36-6.827-15.36-15.36V359.96c0-8.533,6.827-15.36,15.36-15.36H308.76
		c8.533,0,15.36,6.827,15.36,15.36v106.667C323.267,474.307,316.44,481.133,307.907,481.133z M203.8,464.067h102.4v-102.4H203.8
		V464.067z"/>
	<path d="M272.067,208.067c-5.12,0-8.533-3.413-8.533-8.533v-51.2c0-5.12,3.413-8.533,8.533-8.533s8.533,3.413,8.533,8.533v51.2
		C280.6,204.653,277.187,208.067,272.067,208.067z"/>
	<path d="M237.933,208.067c-5.12,0-8.533-3.413-8.533-8.533V165.4c0-5.12,3.413-8.533,8.533-8.533c5.12,0,8.533,3.413,8.533,8.533
		v34.133C246.467,204.653,243.053,208.067,237.933,208.067z"/>
	<path d="M255,447c-18.773,0-34.133-15.36-34.133-34.133c0-18.773,15.36-34.133,34.133-34.133s34.133,15.36,34.133,34.133
		C289.133,431.64,273.773,447,255,447z M255,395.8c-9.387,0-17.067,7.68-17.067,17.067s7.68,17.067,17.067,17.067
		s17.067-7.68,17.067-17.067S264.387,395.8,255,395.8z"/>
	<path d="M289.133,250.733h-68.267c-5.12,0-8.533-3.413-8.533-8.533s3.413-8.533,8.533-8.533h68.267c5.12,0,8.533,3.413,8.533,8.533
		S294.253,250.733,289.133,250.733z"/>
	<path d="M314.733,284.867H195.267c-5.12,0-8.533-3.413-8.533-8.533s3.413-8.533,8.533-8.533h119.467
		c5.12,0,8.533,3.413,8.533,8.533S319.853,284.867,314.733,284.867z"/>
	<path d="M340.333,312.173V229.4l85.333-64v72.533L340.333,312.173z M357.4,237.933v36.693l51.2-44.373v-30.72L357.4,237.933z"/>
	<path d="M434.2,310.467c-14.507,0-25.6-11.093-25.6-25.6V148.333c0-14.507,11.093-25.6,25.6-25.6c14.507,0,25.6,11.093,25.6,25.6
		v136.533C459.8,299.373,448.707,310.467,434.2,310.467z M434.2,139.8c-5.12,0-8.533,3.413-8.533,8.533v136.533
		c0,5.12,3.413,8.533,8.533,8.533c5.12,0,8.533-3.413,8.533-8.533V148.333C442.733,143.213,439.32,139.8,434.2,139.8z"/>
	<path d="M440.173,97.133h-11.947c-11.093,0-19.627-8.533-19.627-19.627v-46.08c0-11.093,8.533-19.627,19.627-19.627h11.947
		c11.093,0,19.627,8.533,19.627,19.627v46.08C459.8,88.6,451.267,97.133,440.173,97.133z M428.227,28.867
		c-1.707,0-2.56,0.853-2.56,2.56v46.08c0,1.707,0.853,2.56,2.56,2.56h11.947c1.707,0,2.56-0.853,2.56-2.56v-46.08
		c0-1.707-0.853-2.56-2.56-2.56H428.227z"/>
	<path d="M502.467,63H365.933c-5.12,0-8.533-3.413-8.533-8.533s3.413-8.533,8.533-8.533h136.533c5.12,0,8.533,3.413,8.533,8.533
		S507.587,63,502.467,63z"/>
	<rect x="425.667" y="88.6" width="17.067" height="42.667"/>
	<path d="M414.573,498.2h-11.947c-11.093,0-19.627-8.533-19.627-19.627v-40.107h51.2v40.107
		C434.2,489.667,425.667,498.2,414.573,498.2z M400.067,455.533v23.04c0,1.707,0.853,2.56,2.56,2.56h11.947
		c1.707,0,2.56-0.853,2.56-2.56v-23.04H400.067z"/>
	<path d="M434.2,455.533H383V447c0-67.413-54.613-119.467-76.8-119.467v-17.067h34.133v-25.6h8.533
		c36.693,0,85.333,92.16,85.333,162.133V455.533z M400.067,438.467h17.067c-3.413-58.027-37.547-118.613-59.733-133.12v5.12
		c0,8.533-5.973,15.36-13.653,17.067C370.2,349.72,396.653,391.533,400.067,438.467z"/>
</g>
</svg>