<?xml version="1.0"?>
<svg width="1920" height="924" xmlns="http://www.w3.org/2000/svg" xmlns:svg="http://www.w3.org/2000/svg" version="1.1">
 <g class="layer">
  <title>Layer 1</title>
  <path d="m1610.23,921.61c85.05,-16.66 141.76,-90.79 141.6,-185.11c-0.08,-48.64 0.08,-48.46 -84.55,-98.42c-78.05,-46.07 -67.76,-36.92 -72.09,-64.11c-12.99,-81.84 -31.58,-129.3 -62.79,-160.47c-39.82,-39.74 -90.65,-51.16 -118.42,-26.61c-5.55,4.91 -5.84,4.96 -5.84,1.11c0,-3.44 0.27,-3.35 -5.55,-1.88c-11.6,2.92 -12.37,7.89 -5.45,35.3c6.98,27.63 10.29,33.54 19.71,35.11c5.88,0.98 6.42,1.31 6.08,3.71c-1.03,7.28 -19.09,-1.2 -24.38,-11.45c-2.38,-4.6 -12.36,-46.92 -12.36,-52.39c-0.01,-9.11 6.63,-15.34 17.98,-16.9c6.13,-0.85 6.15,-1.26 0.22,-5.13c-19.99,-13.06 -28.94,-13.37 -70.11,-2.42c-32.24,8.58 -29.06,8.63 -36.77,-0.51c-8.88,-10.54 -44.08,-28.26 -54.15,-27.26c-2.76,0.28 -0.65,1.63 16.18,10.37c21.52,11.17 23.07,12.75 17.17,17.43c-4.77,3.78 -10.63,2.55 -27.87,-5.85c-24.63,-12 -28.06,-14.54 -24.69,-18.27c1.59,-1.77 1.55,-1.86 -0.86,-1.86c-7.68,0 1.22,-9.6 24.24,-26.16c19.83,-14.25 40.96,-21.58 63.56,-22.03c8.23,-0.17 9.23,-0.39 9.23,-2.03c0,-2.76 -1.66,-2.98 -14.21,-1.89c-29.67,2.58 -50.78,12.8 -82.42,39.88l-4.99,4.27l-2.73,-8.27c-7.07,-21.27 -17.9,-44.91 -27.95,-60.94c-24.48,-39.06 -24.63,-40.38 -7.43,-64.32c30.78,-42.82 46.47,-119.35 28.45,-138.76c-4.92,-5.3 -15.67,-2.7 -44.53,10.74c-8.98,4.18 -22.18,9.57 -29.33,11.98c-27.79,9.35 -53.7,22.9 -90.74,47.46c-16.88,11.19 -16.15,11.01 -29.28,7.2c-19.4,-5.62 -45.88,-6.64 -65.99,-2.55c-9.97,2.03 -9.89,2.08 -13.17,-8.95c-9.76,-32.83 -10.81,-53.67 -3.96,-78.47c4.08,-14.78 4.66,-34.62 1.27,-43.16c-3.75,-9.44 -14.13,-11.98 -34.62,-8.47c-4.94,0.84 -11.68,2 -14.97,2.57c-14.82,2.57 -35.26,11.14 -50.9,21.34c-20.87,13.62 -29.48,22.6 -67.18,70.05c-33.91,42.7 -45.55,54.45 -62.85,63.41c-61.34,31.79 -99.98,74.42 -128.8,142.09c-13.88,32.62 -19.06,48.12 -21.69,65c-3.35,21.52 -1.14,17.17 -22.73,44.65c-18.43,23.45 -41.84,61.78 -64.01,104.85c-19.3,37.48 -36.44,65.93 -55.42,92c-20.99,28.83 -24.79,35.52 -35.19,62c-15.52,39.49 -26.13,91.88 -23.65,116.86c0.6,6.13 1.36,15.76 1.69,21.39l0.58,10.25l-176.29,0l-176.29,0l0,3.5l0,3.5l711.82,-0.03l711.82,-0.04l-3.99,-3.45l-3.99,-3.45l-113.94,-0.01l-113.94,0l10.49,-15.49c10.64,-15.73 15.05,-20.49 25.78,-27.85l5.99,-4.11l21.46,0.28c33.97,0.44 47.69,-5.71 57.75,-25.88c8.14,-16.33 1.82,-21.32 -8.23,-6.5c-15.48,22.84 -29.05,28.48 -58.03,24.12c-6.02,-0.9 -11.67,-1.74 -12.55,-1.86c-0.88,-0.12 -9.16,6.54 -18.39,14.79c-9.23,8.25 -23.96,21.19 -32.72,28.75l-15.93,13.75l-238.05,0l-238.05,0l2.42,-2.6c6.77,-7.25 21.34,-16.44 48.36,-30.5l17.06,-8.88l12.42,3.88c23.9,7.47 57.5,12.95 80.78,13.17c18.96,0.18 102.05,-19.82 153.67,-36.99c53.03,-17.63 72.68,-27.22 140.24,-68.39c28.78,-17.55 29.8,-18.7 47.79,-54.4c4.01,-7.95 6.51,-11.72 8.57,-12.94c2.51,-1.49 2.99,-2.49 3.48,-7.29c4.98,-49.23 21.31,-88.21 50.7,-121.11c27.62,-30.92 49.24,-42.13 81.53,-42.28c24.76,-0.11 22.72,-0.98 89.07,38.13l35.68,21.03l0,-5.29c0,-10.31 0.46,-11.13 6.32,-11.33c7.51,-0.25 13.63,0.72 13.63,2.15c0,3.86 -5.57,12.01 -10.84,15.85c-3.09,2.26 -5.8,4.25 -6.01,4.42c-0.21,0.17 0.35,1.43 1.25,2.8c2.13,3.26 2.07,3.57 -0.68,3.57c-8.96,0 -43.92,16.11 -63.55,29.3c-44.42,29.82 -85.35,93.53 -94.25,146.7c-3.04,18.2 -3.03,20.18 0.12,23.12c5.86,5.47 36.51,29.94 36.95,29.5c0.25,-0.25 1.11,-5.77 1.92,-12.27c10.39,-84.46 74.91,-169.06 146.82,-192.52c12.47,-4.07 12.81,-2.81 -3.34,-12.22c-15.1,-8.79 -15.55,-9.31 -12.46,-14.46c4.08,-6.77 11.07,-21.47 11.07,-23.25c0,-2.37 3.15,-4.44 10.54,-6.9c5.99,-1.99 9.49,-4.68 10.74,-8.23c0.79,-2.23 0.75,-2.22 -6.31,0.75c-16.63,7.01 -54.89,5.21 -54.89,-2.59c0,-7.15 15.18,-24.88 27.21,-31.77c7.57,-4.34 8.68,-7.36 3.21,-8.73c-6.51,-1.64 -26.57,15.46 -33.27,28.34c-4.85,9.32 -9.3,8.21 -13.73,-3.43c-2.21,-5.78 0.29,-14.18 7.95,-26.8c2.67,-4.41 6.21,-10.27 7.84,-13.02c6.16,-10.37 12.51,-14.98 22.23,-16.12c7.22,-0.85 7.64,-4.04 0.83,-6.2c-5.43,-1.73 -8.78,-0.21 -17.75,8.02l-6.55,6.02l-14.7,-0.4c-22.29,-0.61 -26.26,-4.21 -17.23,-15.66c28.42,-36.03 97.32,-11.62 133.09,47.15c25.32,41.59 36.47,82.59 36.59,134.44c0.02,9.27 2.35,9.96 -29.41,-8.72c-39.85,-23.46 -39.34,-23.29 -56.05,-18.5c-71.71,20.57 -144.08,120.28 -144.08,198.47l0,6.91l6.74,5.8c3.71,3.2 27.4,22.66 52.64,43.25s60.96,49.74 79.34,64.77c61.05,49.91 79.14,57.54 118.26,49.88l0.04,-0.03zm-40.03,-22.09c-32.28,-9.6 -22.56,-87.13 17.66,-141.09c36.32,-48.7 113.11,-81.24 139.33,-59.03c6.75,5.71 12.6,22.27 10.8,30.5c-0.93,4.25 -3.51,4.1 -3.51,-0.2c0,-4.31 -4.05,-12.34 -9.15,-18.15c-5.32,-6.05 -5.85,-5.14 -1.95,3.36c23.28,50.62 -33.45,153.87 -95.3,173.42c-17.22,5.44 -44.92,7.66 -54.24,4.35c-6.92,-2.46 -5.93,-1.28 3.13,3.71l8.3,4.58l-5.06,0.02c-2.78,0.01 -7.3,-0.65 -10.03,-1.46l0.01,-0.01zm41.53,-41.58c62.63,-16.34 106,-107.27 71.03,-148.93l-2.93,-3.49l-8.84,2.89c-54.17,17.67 -103.86,78.28 -108.81,132.69c-1.33,14.53 24.62,23.35 49.56,16.85l0,-0.01zm24.78,-29.59c-2.36,-2.14 -2.31,-5.63 0.17,-12.85c2.56,-7.47 2.71,-7.07 -2.52,-6.65c-14.65,1.17 -6.61,-21.68 10.86,-30.84c6.1,-3.21 7.94,-1.57 7.45,6.62l-0.31,5.12l4.99,-1.48c2.74,-0.81 5.29,-1.66 5.67,-1.89c9.56,-5.78 17.08,3.82 11.3,14.44c-11.72,21.55 -29.68,34.71 -37.59,27.53zm-130.43,45.1c-18.15,-23.11 2.6,-96.04 42.45,-149.21c38.94,-51.95 103.43,-90.38 129.45,-77.14c8.58,4.37 8.48,4.51 -4.06,5.35c-78.7,5.28 -164.53,110.6 -164.47,201.81c0.02,22.69 -0.1,23.36 -3.37,19.19zm-961.48,-59.81c-8.03,-14.4 -4.59,-19.32 19.26,-27.52c24.17,-8.3 26.26,-10.11 26.77,-23.16c0.56,-14.37 17.65,-24.07 65.74,-37.27l9.17,-2.52l12.33,8.67c6.79,4.77 16.01,11.09 20.51,14.05c4.49,2.95 8.17,5.73 8.17,6.16c0,2.49 -10.64,12.01 -17.64,15.78c-10.86,5.86 -16.35,10.89 -25.79,23.65c-10.07,13.61 -15.64,19.07 -23.68,23.22l-6.24,3.21l-43.08,0.05l-43.07,0.05l-2.44,-4.37zm-184.05,-0.56c1.39,-11.76 8.49,-18.8 23.86,-23.62c5.43,-1.71 6.02,-2.24 12.38,-11.07c3.67,-5.11 7.39,-9.55 8.26,-9.88c24.24,-9.14 39.33,-22.46 41.03,-36.25c2.53,-20.54 9.52,-28.35 33.26,-37.19c24.95,-9.29 26.66,-10.65 24.08,-19.17c-2.66,-8.81 8.24,-15.9 42.94,-27.91l14.97,-5.19l9.98,0.59c5.51,0.32 17.12,2.15 25.9,4.07c18.16,3.98 19.14,3.93 10.38,-0.58c-16.41,-8.45 -27.27,-12.87 -31.62,-12.87c-1.53,0 -4.3,-1.13 -6.17,-2.51c-7.45,-5.5 -11.2,-5.22 -24.23,1.82c-10.61,5.73 -12.14,6.03 -21.39,4.1c-18.6,-3.87 -28.17,-1.36 -47.61,12.49c-11.87,8.44 -15.98,10.6 -26.97,14.16c-15.55,5.03 -25.68,17.81 -31.03,39.18c-3.48,13.88 -38.71,46.63 -42.5,39.51c-0.66,-1.24 -2.47,-3.44 -4.02,-4.9c-6.81,-6.38 6.25,-48.19 30.37,-97.29c12.86,-26.18 13.85,-27.12 23.82,-22.58c5.85,2.66 7.72,2.54 16.67,-1.07c10.78,-4.35 14.91,-3.86 26.53,3.16c13.64,8.25 38.12,6.5 49.48,-3.54c1.25,-1.09 3.03,-1.08 10.48,0.06c32.46,4.98 85.62,12.45 85.99,12.08c0.25,-0.24 -4.86,-3.24 -11.34,-6.66c-14.98,-7.92 -18,-10.24 -20.29,-15.58c-3.46,-8.1 -27.66,-15.5 -58.85,-17.97c-38.66,-3.07 -43.59,-4.39 -58.47,-15.62c-10.55,-7.97 -8.11,-18.42 13.31,-57.19c3,-5.45 6.37,-11.98 7.48,-14.52c2.89,-6.66 13.69,-25.86 15.27,-27.17c4.54,-3.78 10.2,3.78 19.1,25.54c6.14,15.01 9.61,20.43 20.74,32.36c10.5,11.27 11.89,13.33 15.66,23.28c6.17,16.25 16.65,24.34 37.94,29.32c8.05,1.89 8.62,2.32 44.73,34.43c17.29,15.37 31.55,27.84 31.68,27.7c10.5,-10.52 -21.78,-81.24 -34.56,-75.73c-6.79,2.92 -8.31,2.17 -21.02,-10.3c-5.79,-5.68 -12.06,-11.1 -13.92,-12.05c-7.05,-3.57 -8.7,-6.37 -18.07,-30.47c-6.31,-16.24 -9.91,-19.86 -17.79,-17.85c-10.02,2.55 -15.98,-6.93 -33.04,-52.56c-6.15,-16.44 -6.15,-16.18 0.25,-21.22c7.93,-6.25 20.06,-6.27 29.1,-0.04c7,4.82 9.07,3.6 8.77,-5.12c-0.31,-8.69 -1.14,-8.58 9.13,-1.26c16.37,11.65 68.36,15.34 88.67,6.29c6.94,-3.08 6.9,-2.54 0.62,-8.92c-6.52,-6.6 -6.17,-8.36 1.67,-8.36c5.13,0 5.87,-0.3 9,-3.63l3.41,-3.63l7.74,0.48c5.53,0.35 11.32,1.7 20.22,4.72c6.87,2.33 15.28,4.48 18.69,4.78l6.23,0.55l3.75,-4.03c2.08,-2.21 5.16,-5.65 6.87,-7.63c2.99,-3.51 3.29,-3.6 10.28,-3.6c5.82,0 8.54,-0.59 14.36,-3.1c18.71,-8.07 22.48,-7.88 42.15,2.03c8.51,4.3 15.24,7.07 17.15,7.07c6.88,0 7.48,0.75 11.55,14.63c12.08,41.12 27.38,53.6 75.81,61.82c20.15,3.42 45.15,6.55 52.39,6.55c2.7,0 4.8,0.82 7.28,2.85c15.29,12.58 23.6,3.27 12,-13.45c-5.99,-8.63 -8.58,-14.38 -14,-31.06c-9.53,-29.27 -15.34,-35.67 -46.92,-51.62c-21.7,-10.96 -54.41,-16.34 -94.31,-15.5l-12.97,0.28l-14.3,-5.75c-17.59,-7.08 -20.36,-7.23 -40.27,-2.21c-18.49,4.67 -39.51,6.84 -58.2,6.02c-49.78,-2.18 -50.07,-2.16 -56.96,3.82c-3.73,3.23 -3.86,3.55 -2.76,6.51c1.39,3.71 -0.25,4.32 -3.12,1.15c-5.61,-6.22 -11.64,-8.83 -21.61,-9.36c-11.86,-0.63 -16.86,-2.82 -19.85,-8.7c-2.26,-4.43 -4.89,-4.99 -13.72,-2.95c-37.4,8.64 -14.87,-67.41 34.05,-115.03c50.38,-49.04 55.18,-54.49 61.77,-70.33c1.65,-3.95 3.14,-7.34 3.32,-7.55c0.19,-0.21 3.75,2.8 7.9,6.69c15.49,14.49 25.32,14.57 47.04,0.39c16.57,-10.82 25.51,-14.19 41.83,-15.75l7.03,-0.67l3.61,5.87c9.35,15.18 14.6,18.54 22.88,14.69c10.16,-4.71 14.04,-1.97 28.89,20.35c29.08,43.72 49.08,59.51 63.3,49.97c12.13,-8.12 18.34,-3.89 28.03,19.05c9.14,21.6 13.26,25.55 24.41,23.36c9.95,-1.96 10.68,-1.28 39.03,36.43c18.67,24.85 29.85,37.5 33.13,37.5c7.94,0 4.69,-20.21 -6.95,-43c-9.43,-18.49 -15.31,-25.28 -49.73,-57.5c-7.64,-7.15 -17.1,-17.05 -21.01,-22c-3.91,-4.95 -10.6,-13.41 -14.86,-18.79c-14.42,-18.21 -26.75,-23.27 -30.97,-12.71c-4.15,10.42 -11.55,4.08 -17.25,-14.78l-2.8,-9.28l-6.5,-1.9c-3.57,-1.05 -12.34,-3.59 -19.47,-5.65c-16.74,-4.83 -16.37,-4.03 -6.16,-13.52c10.61,-9.85 11.02,-9.4 -7.08,-7.83l-14.81,1.29l-5.69,-2.61c-9.12,-4.18 5.4,-15.87 34.47,-27.74c16.38,-6.69 -15.51,3.48 -40.6,12.94c-6.01,2.27 -11.33,3.98 -11.82,3.82c-1.14,-0.38 4.03,-7.2 24.03,-31.74c19.07,-23.4 19.18,-22.73 -1.5,-8.76c-11.06,7.47 -18.55,11.84 -21.8,12.71c-3.53,0.95 -6.39,2.72 -9.97,6.19c-17.64,17.07 -3.92,-28.26 19.26,-63.64c27.94,-42.83 47.6,-57.49 77.05,-57.49c22.69,0 27.97,8.72 18.47,30.48c-18.54,42.45 -9.59,91.3 22.77,124.26c18.69,19.05 19.05,20.03 3.11,8.61c-23.99,-17.18 -39.37,-17.19 -39.4,-0.02l-0.02,7.82l5.74,6.04c3.15,3.32 16.92,15.08 30.58,26.14c27.36,22.12 39.29,32.89 42.67,38.49c1.23,2.02 3.98,5.71 6.14,8.18c4.85,5.6 7.39,10.49 8.76,16.93c1.53,7.15 3.39,8.97 16.06,15.63c23.28,12.24 38.17,36.81 57.22,94.4c3.32,10.03 3.16,10.25 7.39,-10.26c10.87,-52.73 7.24,-74.12 -15.11,-88.93c-21.91,-14.53 -23.03,-18.06 -11.31,-35.27c9.93,-14.58 9.15,-17.86 -6.42,-27.01c-17.73,-10.42 -17.86,-11.05 -4.76,-24.22c11.39,-11.44 11.69,-11.59 14.87,-7.02c1.24,1.79 7.28,8.5 13.4,14.91c15.9,16.68 16.9,19.24 13.37,34.36c-3.75,16.16 -3,18.66 7.39,24.53c8.43,4.77 8.24,3.86 10.58,50.97c1.95,39.26 3.5,44.85 11.05,39.72l3.42,-2.33l-0.5,-13.94c-1.29,-35.98 -0.55,-65.39 1.9,-75.29c3.24,-13.15 2.68,-19.82 -2.71,-32.35c-8.56,-19.91 -3.47,-28.04 15.29,-24.44l3.99,0.77l-9.85,-9.95c-10.24,-10.35 -19.52,-16.79 -25.55,-17.72c-7.61,-1.18 -10.73,-2.57 -14.88,-6.69c-7.94,-7.86 -10.49,-17.01 -5.36,-19.26c1.24,-0.54 2.25,-1.51 2.25,-2.14c0,-10.33 41.47,-40.58 87.1,-63.54c7.58,-3.82 17.38,-9.39 21.77,-12.39c11.95,-8.15 14.64,-6.89 15.6,7.27c1.67,24.8 -8.53,57.17 -36.67,116.4c-6.1,12.83 -11.33,24.54 -11.62,26.01c-0.57,2.84 -0.32,3.45 18.62,44.38c19.63,42.45 27.31,62.92 26.76,71.41l-0.3,4.58l-10.98,1.85c-15.42,2.6 -16.2,1.48 9.48,13.65c28.84,13.68 32.24,16.79 25.56,23.48c-5.2,5.21 -13.77,2.79 -46.08,-13.01c-15.33,-7.49 -17.41,-9.23 -17.41,-14.56c0,-4.88 -10.02,4.39 -14.06,13c-1.6,3.4 -4.24,14.1 -3.48,14.1c18.46,0 26.88,5.23 32.89,20.43c5.76,14.53 4.17,22.08 -6.81,32.36c-23.96,22.46 -64.28,22.48 -70.46,0.03c-2.95,-10.71 -11.2,-5.41 -19.42,12.48l-3.3,7.2l1.23,24.5l1.23,24.5l-2.33,6.27c-3.01,8.14 -2.92,10.59 0.55,16.14c2.61,4.18 2.93,5.65 3.46,16.34l0.58,11.75l-3.91,0c-2.16,0 -8.39,-0.71 -13.86,-1.58c-11.08,-1.75 -13.6,-1.21 -14.7,3.2c-2.98,11.91 9.09,34.98 22.69,43.37c5.97,3.67 6.15,5.56 1.6,16.84c-11.54,28.63 -30.03,42.57 -60.63,45.69c-25.01,2.56 -76.81,-28.84 -87.81,-53.23c-1.69,-3.73 -4.43,-8.49 -6.09,-10.57l-3.03,-3.79l6.32,0.54c42.13,3.62 44.97,3.77 45.84,2.4c1.79,-2.82 3.97,-2.46 -32.53,-5.35c-68.23,-5.4 -121.14,-0.69 -158.18,14.08c-20.67,8.23 -60.2,-7.23 -94.26,-36.87l-3.93,-3.43l0.25,-14.4c0.86,-50.23 3.5,-53.22 36.97,-41.9c22.06,7.47 24.64,6.99 34.82,-6.38c2.3,-3.01 6.97,-4.49 14.49,-4.57c2.46,-0.03 4.95,-0.92 7.02,-2.5c6.17,-4.71 16.49,-8.71 28.82,-11.17c12.95,-2.59 16.3,-4.06 17.72,-7.84c0.5,-1.3 4.49,-5.1 8.88,-8.45c17.66,-13.47 6.22,-13.48 -44.29,-0.01c-38.8,10.34 -53.37,11.8 -83.13,8.33c-32.14,-3.75 -51.91,1.38 -46.8,12.13c2.67,5.62 2.25,7.23 -2.27,8.45c-4,1.08 -7.03,3.31 -7.03,5.18c0,13.57 -7.88,9.83 -19.09,-9.05c-6.89,-11.59 -13.58,-20.12 -15.81,-20.12c-2.07,0 12.43,28.83 23.21,46.14c26.87,43.17 68.61,81.58 104.77,96.41c10.07,4.13 10.49,2.79 -3.94,12.36c-13.37,8.87 -13.89,9.35 -11.9,11.01c1.09,0.91 3.04,-0.04 9.22,-4.49c4.31,-3.1 10.83,-7.41 14.47,-9.58l6.64,-3.95l11.33,1.68c12.87,1.91 43.65,1.44 60.58,-0.93l9.32,-1.3l11.14,4.04c6.13,2.21 18.55,7.83 27.6,12.47c54.66,28.04 59.54,30.07 78.84,32.75c20.06,2.8 55.77,2.26 68.86,-1.03c25.38,-6.38 41.39,-13.65 42.45,-19.29c0.02,-0.11 2.05,0.52 4.49,1.4c9.98,3.59 28.43,1.83 40.53,-3.86l4.27,-2.02l8.26,6.01c4.55,3.31 11.62,8.53 15.7,11.6c5,3.77 8,5.41 9.23,5.02c13.07,-4.16 -79.96,45.07 -107.97,57.13c-43.41,18.7 -105.74,38.79 -170.6,54.99l-11.43,2.85l-19.01,-2.74c-77.4,-11.18 -125.82,-33.31 -185.02,-84.59c-16.93,-14.66 -17.35,-14.85 -13.62,-6.45c1.66,3.73 2.42,6.86 2.08,8.57c-0.43,2.19 0.09,3.2 2.67,5.24c3.69,2.92 2.28,3.25 -4.22,0.98c-5.9,-2.06 -15.79,-1.98 -20.64,0.15c-2.75,1.21 -8.18,1.9 -18.83,2.4c-18.04,0.84 -21.11,1.94 -31.04,11.2c-13.52,12.6 -15.17,13.68 -25.69,16.93c-15.15,4.69 -23.87,15.47 -34.25,42.31c-5.4,13.98 -6.02,14.99 -16.76,27.33l-8.03,9.23l-63.76,0.02l-63.76,0.01l0.58,-4.93l0.13,-0.05zm661.36,-224.05c3.04,-1.93 -11.58,-13.77 -26.04,-21.08c-57.13,-28.9 -189.26,-43.99 -292.06,-33.36c-5.3,0.55 -10.16,4.44 -5.49,4.4c0.41,0 8.83,-0.65 18.71,-1.43c119.7,-9.53 259.03,12.28 296.06,46.33c3.65,3.36 6.8,6.1 6.99,6.09c0.19,0 1.02,-0.44 1.84,-0.95zm124.26,-139.85c18.07,-5.39 34.37,-19.63 33.22,-29.01c-0.31,-2.56 -0.43,-2.48 -2.62,1.67c-2.86,5.41 -3.33,5.02 -2.25,-1.87l0.86,-5.42l-7.62,8.04c-14.48,15.27 -22.34,18.77 -42.3,18.85c-7,0.03 -12.71,0.28 -12.7,0.55c0.3,6.99 19.93,11.21 33.41,7.19zm-5.99,-15.08c21.77,-6.36 38.58,-25.11 30.41,-33.91c-13.14,-14.13 -55.79,-1.33 -63.33,19.01c-5.05,13.62 11.56,21.14 32.92,14.9zm85.33,-50.95c0,-2.37 -14.86,-10.16 -38.28,-20.06c-13.37,-5.66 -13.84,-5.76 -13.44,-2.94c0.72,5.11 51.73,27.79 51.73,23zm-236.82,-21.96c2.28,-1.45 -23.25,-30.29 -41.13,-46.48c-47.14,-42.67 -95.95,-65.01 -186.13,-85.19c-9.06,-2.03 -17.21,-3.89 -18.09,-4.14c-1.01,-0.27 -1.82,0.3 -2.14,1.53c-0.46,1.76 0.5,2.19 9.1,4.1c116.87,25.87 170.57,54.2 225.92,119.2c10.39,12.19 10.46,12.26 12.47,10.98zm-58.27,-6.32c0.58,-2.21 1.35,-1.83 -23.17,-11.28c-107.54,-41.43 -197.72,-54.43 -277.29,-39.96c-2.86,0.52 -5.1,4.41 -2.49,4.34c0.41,-0.01 7.48,-0.9 15.72,-1.98c84.37,-11.06 172.07,3.76 277.1,46.84c9.03,3.71 9.67,3.83 10.14,2.04zm25.13,312.04c-21.34,-2.61 -25.25,-4.19 -77.34,-31.03c-11.26,-5.8 -24.34,-11.94 -29.09,-13.65l-8.63,-3.11l-19.49,0.6c-18.57,0.57 -38.83,-0.71 -42.44,-2.67c-2.03,-1.11 24.2,-9.52 38.78,-12.44c31.84,-6.38 99.51,-9.29 91.9,-3.95c-10.96,7.7 34.66,50.1 67.7,62.92c10.83,4.21 -0.18,5.92 -21.38,3.33zm117.24,-20.88c-1.36,-0.71 -2.58,-1.39 -2.72,-1.5c-0.14,-0.12 1.4,-1.97 3.42,-4.12c2.03,-2.14 5.86,-8.51 8.52,-14.15c5.69,-12.08 5,-11.67 7.62,-4.45c2.49,6.84 7.4,12.92 13.62,16.86c2.47,1.56 4.49,3.35 4.49,3.97c0.01,4.32 -27.98,7.03 -34.96,3.38l0,0.01zm106.28,-114.27c0.42,-25.44 1.05,-49.38 1.4,-53.2l0.64,-6.95l5.49,-1.67c3.02,-0.92 16.65,-5.14 30.28,-9.38c32.6,-10.14 32.97,-10.85 -7.55,14.5c-9.19,5.74 -16.92,11.12 -17.19,11.94c-0.39,1.23 -12.52,88.89 -12.52,90.51c0,0.27 -0.3,0.49 -0.66,0.49c-0.35,0 -0.3,-20.81 0.11,-46.25l0.01,0.01zm-226.76,-56.37c-4.53,-0.31 -8.23,-0.76 -8.23,-1c0,-0.25 1.83,-2.76 4.06,-5.59c6.08,-7.71 7.99,-12.18 10.41,-24.29l2.19,-11l3.19,10.5c1.76,5.77 4.74,15.1 6.64,20.73c1.9,5.63 3.45,10.64 3.45,11.13c0,0.86 -2.84,0.8 -21.71,-0.48zm-38.81,-3.35c-29.07,-6.84 -31.95,-52.39 -4.27,-67.48c13.56,-7.4 43.53,5.99 39.59,17.68c-0.24,0.72 -1.12,-0.06 -2.02,-1.79c-13.96,-26.86 -48.18,-14.73 -48.18,17.06c0,30.3 28.44,43.32 45.73,20.92c4.97,-6.43 6.16,-5.42 1.74,1.48c-9.61,15.01 -13.78,16.56 -32.63,12.13l0.05,0zm-30.98,-10.01c-18.06,-8.48 -35.42,-37.55 -33.95,-56.87c0.69,-9.04 -0.89,-8.61 27.61,-7.47c29.01,1.16 27.67,0.67 21.19,7.78c-12.28,13.46 -15.89,34.69 -8.77,51.53c1.51,3.58 2.98,7.07 3.27,7.75c0.79,1.88 -0.14,1.61 -9.35,-2.72zm44.63,-8.66c-8.52,-5.04 -7.9,-20.58 0.99,-25.09c10.87,-5.51 21.64,6.9 16.56,19.09c-2.91,6.99 -11.13,9.8 -17.54,6zm344.74,-14.27c3.38,-3.26 36.75,-15.23 51.6,-18.51c8.88,-1.97 8.79,-0.7 0.99,-13.37c-5.97,-9.69 -5.89,-9.67 10.49,2.6c12.75,9.55 13.99,10.73 11.98,11.49c-10.64,3.96 -77.05,19.7 -75.05,17.79zm153.09,-7.48c-3.58,-2.44 -7.88,-9 -6.69,-10.2c0.36,-0.36 2.8,1.23 5.42,3.54c4.46,3.93 7.43,4.05 3.91,0.16c-2.49,-2.76 -2.01,-3.11 4.39,-3.11c7.06,0 6.89,-0.45 2.47,6.48c-3.98,6.25 -4.62,6.45 -9.5,3.13zm-42.1,-56.29c-11.33,-1.49 -14.53,-1.53 -27.79,-0.38c-19.09,1.66 -19.22,1.23 -1.21,-3.82c19.16,-5.37 22.59,-5.37 34.85,0.04c14.54,6.41 14.04,6.77 -5.85,4.16zm534.16,446.18l0,-3.5l-87.3,0l-87.31,0l-1.52,2.95c-0.84,1.62 -1.53,3.2 -1.53,3.5c0.01,0.3 39.98,0.55 88.83,0.55l88.82,0l0,-3.5l-0.01,0zm-622.31,-113.75c0.26,-1.24 0.98,-5.63 1.6,-9.75c12.17,-81.51 80.47,-162.04 156.63,-184.67c1.42,-0.42 -7.48,-5.91 -54.36,-33.51c-44.29,-26.07 -54.76,-28.75 -85.06,-21.76c-35.77,8.25 -77.27,54.79 -94.47,105.94c-4.37,13 -11.92,51 -10.12,51c0.09,0 2.31,-0.73 4.91,-1.62c22.38,-7.64 33.59,10.36 24.67,39.62c-3.51,11.52 -7.17,6.81 26.37,34c31.12,25.25 29.18,23.9 29.84,20.75zm-22.4,-339.24c0,-0.7 -30.43,-15.83 -36.2,-18c-11.23,-4.23 -4.59,0.18 13.5,8.99c17.5,8.51 22.69,10.57 22.69,9.01z" fill="#ff7f00" id="path4713"/>
 </g>
</svg>