<?xml version="1.0"?>
<svg width="1920" height="924" xmlns="http://www.w3.org/2000/svg" xmlns:svg="http://www.w3.org/2000/svg" version="1.1">
 <g class="layer">
  <title>Layer 1</title>
  <path d="m1607.88,921.61c84.87,-16.66 141.46,-90.79 141.3,-185.11c-0.08,-48.64 0.08,-48.46 -84.37,-98.42c-77.89,-46.07 -67.62,-36.92 -71.94,-64.11c-12.97,-81.84 -31.51,-129.3 -62.66,-160.47c-39.74,-39.74 -90.46,-51.16 -118.18,-26.61c-5.54,4.91 -5.83,4.96 -5.83,1.11c0,-3.44 0.27,-3.35 -5.54,-1.88c-11.57,2.92 -12.34,7.89 -5.44,35.3c6.96,27.63 10.27,33.54 19.67,35.11c5.87,0.98 6.4,1.31 6.07,3.71c-1.03,7.28 -19.05,-1.2 -24.33,-11.45c-2.37,-4.6 -12.33,-46.92 -12.33,-52.39c-0.01,-9.11 6.61,-15.34 17.95,-16.9c6.11,-0.85 6.13,-1.26 0.22,-5.13c-19.95,-13.06 -28.88,-13.37 -69.96,-2.42c-32.17,8.58 -29,8.63 -36.69,-0.51c-8.86,-10.54 -43.99,-28.26 -54.04,-27.26c-2.76,0.28 -0.65,1.63 16.14,10.37c21.47,11.17 23.03,12.75 17.13,17.43c-4.76,3.78 -10.61,2.55 -27.82,-5.85c-24.58,-12 -28.01,-14.54 -24.64,-18.27c1.58,-1.77 1.54,-1.86 -0.86,-1.86c-7.67,0 1.22,-9.6 24.19,-26.16c19.79,-14.25 40.87,-21.58 63.43,-22.03c8.22,-0.17 9.21,-0.39 9.21,-2.03c0,-2.76 -1.65,-2.98 -14.18,-1.89c-29.61,2.58 -50.67,12.8 -82.25,39.88l-4.98,4.27l-2.73,-8.27c-7.05,-21.27 -17.87,-44.91 -27.9,-60.94c-24.43,-39.06 -24.58,-40.38 -7.41,-64.32c30.71,-42.82 46.37,-119.35 28.39,-138.76c-4.91,-5.3 -15.64,-2.7 -44.44,10.74c-8.96,4.18 -22.13,9.57 -29.27,11.98c-27.74,9.35 -53.59,22.9 -90.55,47.46c-16.84,11.19 -16.11,11.01 -29.22,7.2c-19.36,-5.62 -45.78,-6.64 -65.85,-2.55c-9.95,2.03 -9.87,2.08 -13.15,-8.95c-9.74,-32.83 -10.79,-53.67 -3.95,-78.47c4.07,-14.78 4.65,-34.62 1.26,-43.16c-3.74,-9.44 -14.1,-11.98 -34.55,-8.47c-4.93,0.84 -11.65,2 -14.94,2.57c-14.79,2.57 -35.19,11.14 -50.79,21.34c-20.82,13.62 -29.42,22.6 -67.04,70.05c-33.84,42.7 -45.45,54.45 -62.72,63.41c-61.21,31.79 -99.77,74.42 -128.53,142.09c-13.85,32.62 -19.02,48.12 -21.64,65c-3.35,21.52 -1.14,17.17 -22.69,44.65c-18.39,23.45 -41.75,61.78 -63.88,104.85c-19.26,37.48 -36.36,65.93 -55.3,92c-20.94,28.83 -24.74,35.52 -35.12,62c-15.49,39.49 -26.07,91.88 -23.6,116.86c0.6,6.13 1.35,15.76 1.68,21.39l0.58,10.25l-175.92,0l-175.92,0l0,3.5l0,3.5l710.34,-0.03l710.34,-0.04l-3.98,-3.45l-3.98,-3.45l-113.7,-0.01l-113.7,0l10.47,-15.49c10.62,-15.73 15.02,-20.49 25.72,-27.85l5.98,-4.11l21.41,0.28c33.9,0.44 47.59,-5.71 57.63,-25.88c8.13,-16.33 1.81,-21.32 -8.22,-6.5c-15.45,22.84 -28.99,28.48 -57.91,24.12c-6.01,-0.9 -11.64,-1.74 -12.53,-1.86c-0.88,-0.12 -9.14,6.54 -18.35,14.79c-9.21,8.25 -23.91,21.19 -32.66,28.75l-15.89,13.75l-237.56,0l-237.56,0l2.41,-2.6c6.75,-7.25 21.29,-16.44 48.26,-30.5l17.02,-8.88l12.39,3.88c23.85,7.47 57.38,12.95 80.61,13.17c18.92,0.18 101.83,-19.82 153.35,-36.99c52.92,-17.63 72.53,-27.22 139.95,-68.39c28.72,-17.55 29.74,-18.7 47.69,-54.4c4,-7.95 6.49,-11.72 8.55,-12.94c2.51,-1.49 2.99,-2.49 3.48,-7.29c4.97,-49.23 21.26,-88.21 50.59,-121.11c27.57,-30.92 49.14,-42.13 81.36,-42.28c24.71,-0.11 22.68,-0.98 88.89,38.13l35.6,21.03l0,-5.29c0,-10.31 0.46,-11.13 6.3,-11.33c7.5,-0.25 13.6,0.72 13.6,2.15c0,3.86 -5.56,12.01 -10.82,15.85c-3.09,2.26 -5.79,4.25 -6,4.42c-0.21,0.17 0.35,1.43 1.24,2.8c2.12,3.26 2.06,3.57 -0.68,3.57c-8.94,0 -43.83,16.11 -63.42,29.3c-44.33,29.82 -85.17,93.53 -94.05,146.7c-3.04,18.2 -3.03,20.18 0.12,23.12c5.85,5.47 36.43,29.94 36.87,29.5c0.25,-0.25 1.11,-5.77 1.91,-12.27c10.37,-84.46 74.75,-169.06 146.51,-192.52c12.44,-4.07 12.79,-2.81 -3.34,-12.22c-15.07,-8.79 -15.52,-9.31 -12.43,-14.46c4.07,-6.77 11.04,-21.47 11.04,-23.25c0,-2.37 3.15,-4.44 10.52,-6.9c5.98,-1.99 9.47,-4.68 10.72,-8.23c0.79,-2.23 0.75,-2.22 -6.29,0.75c-16.59,7.01 -54.78,5.21 -54.78,-2.59c0,-7.15 15.15,-24.88 27.15,-31.77c7.56,-4.34 8.66,-7.36 3.21,-8.73c-6.49,-1.64 -26.51,15.46 -33.2,28.34c-4.84,9.32 -9.28,8.21 -13.7,-3.43c-2.2,-5.78 0.29,-14.18 7.94,-26.8c2.67,-4.41 6.19,-10.27 7.83,-13.02c6.14,-10.37 12.49,-14.98 22.18,-16.12c7.2,-0.85 7.63,-4.04 0.83,-6.2c-5.42,-1.73 -8.76,-0.21 -17.72,8.02l-6.53,6.02l-14.67,-0.4c-22.24,-0.61 -26.2,-4.21 -17.19,-15.66c28.36,-36.03 97.12,-11.62 132.82,47.15c25.27,41.59 36.39,82.59 36.51,134.44c0.02,9.27 2.34,9.96 -29.35,-8.72c-39.77,-23.46 -39.26,-23.29 -55.93,-18.5c-71.56,20.57 -143.78,120.28 -143.78,198.47l0,6.91l6.72,5.8c3.7,3.2 27.34,22.66 52.53,43.25s60.83,49.74 79.18,64.77c60.92,49.91 78.98,57.54 118.02,49.88l0.04,-0.03zm-39.95,-22.09c-32.21,-9.6 -22.52,-87.13 17.63,-141.09c36.24,-48.7 112.88,-81.24 139.04,-59.03c6.73,5.71 12.58,22.27 10.78,30.5c-0.93,4.25 -3.51,4.1 -3.51,-0.2c0,-4.31 -4.04,-12.34 -9.13,-18.15c-5.31,-6.05 -5.84,-5.14 -1.94,3.36c23.23,50.62 -33.38,153.87 -95.1,173.42c-17.18,5.44 -44.83,7.66 -54.13,4.35c-6.9,-2.46 -5.92,-1.28 3.13,3.71l8.29,4.58l-5.05,0.02c-2.78,0.01 -7.28,-0.65 -10.01,-1.46l0.01,-0.01zm41.44,-41.58c62.5,-16.34 105.78,-107.27 70.88,-148.93l-2.93,-3.49l-8.82,2.89c-54.06,17.67 -103.65,78.28 -108.58,132.69c-1.32,14.53 24.57,23.35 49.46,16.85l0,-0.01zm24.73,-29.59c-2.35,-2.14 -2.3,-5.63 0.17,-12.85c2.56,-7.47 2.71,-7.07 -2.52,-6.65c-14.62,1.17 -6.59,-21.68 10.84,-30.84c6.09,-3.21 7.93,-1.57 7.43,6.62l-0.31,5.12l4.98,-1.48c2.74,-0.81 5.28,-1.66 5.66,-1.89c9.54,-5.78 17.04,3.82 11.27,14.44c-11.69,21.55 -29.62,34.71 -37.52,27.53zm-130.16,45.1c-18.12,-23.11 2.6,-96.04 42.37,-149.21c38.86,-51.95 103.22,-90.38 129.18,-77.14c8.56,4.37 8.47,4.51 -4.05,5.35c-78.54,5.28 -164.19,110.6 -164.13,201.81c0.02,22.69 -0.1,23.36 -3.37,19.19zm-959.48,-59.81c-8.02,-14.4 -4.58,-19.32 19.22,-27.52c24.12,-8.3 26.2,-10.11 26.71,-23.16c0.56,-14.37 17.62,-24.07 65.6,-37.27l9.15,-2.52l12.3,8.67c6.77,4.77 15.97,11.09 20.47,14.05c4.48,2.95 8.16,5.73 8.16,6.16c0,2.49 -10.62,12.01 -17.61,15.78c-10.84,5.86 -16.31,10.89 -25.73,23.65c-10.05,13.61 -15.61,19.07 -23.63,23.22l-6.22,3.21l-42.99,0.05l-42.98,0.05l-2.43,-4.37zm-183.67,-0.56c1.38,-11.76 8.48,-18.8 23.81,-23.62c5.42,-1.71 6.01,-2.24 12.35,-11.07c3.66,-5.11 7.37,-9.55 8.25,-9.88c24.19,-9.14 39.25,-22.46 40.94,-36.25c2.53,-20.54 9.5,-28.35 33.19,-37.19c24.9,-9.29 26.6,-10.65 24.03,-19.17c-2.66,-8.81 8.23,-15.9 42.85,-27.91l14.94,-5.19l9.96,0.59c5.5,0.32 17.08,2.15 25.84,4.07c18.13,3.98 19.1,3.93 10.36,-0.58c-16.37,-8.45 -27.21,-12.87 -31.55,-12.87c-1.52,0 -4.29,-1.13 -6.15,-2.51c-7.43,-5.5 -11.17,-5.22 -24.18,1.82c-10.59,5.73 -12.11,6.03 -21.34,4.1c-18.56,-3.87 -28.11,-1.36 -47.52,12.49c-11.84,8.44 -15.94,10.6 -26.91,14.16c-15.52,5.03 -25.62,17.81 -30.96,39.18c-3.48,13.88 -38.63,46.63 -42.42,39.51c-0.66,-1.24 -2.46,-3.44 -4.01,-4.9c-6.79,-6.38 6.23,-48.19 30.31,-97.29c12.84,-26.18 13.82,-27.12 23.77,-22.58c5.84,2.66 7.71,2.54 16.63,-1.07c10.76,-4.35 14.88,-3.86 26.47,3.16c13.61,8.25 38.04,6.5 49.38,-3.54c1.24,-1.09 3.03,-1.08 10.46,0.06c32.4,4.98 85.44,12.45 85.81,12.08c0.25,-0.24 -4.85,-3.24 -11.31,-6.66c-14.95,-7.92 -17.97,-10.24 -20.25,-15.58c-3.46,-8.1 -27.61,-15.5 -58.73,-17.97c-38.58,-3.07 -43.5,-4.39 -58.35,-15.62c-10.53,-7.97 -8.1,-18.42 13.29,-57.19c3,-5.45 6.35,-11.98 7.47,-14.52c2.89,-6.66 13.66,-25.86 15.24,-27.17c4.53,-3.78 10.18,3.78 19.06,25.54c6.12,15.01 9.59,20.43 20.7,32.36c10.48,11.27 11.86,13.33 15.63,23.28c6.15,16.25 16.61,24.34 37.86,29.32c8.04,1.89 8.6,2.32 44.64,34.43c17.25,15.37 31.48,27.84 31.61,27.7c10.48,-10.52 -21.73,-81.24 -34.49,-75.73c-6.77,2.92 -8.3,2.17 -20.97,-10.3c-5.78,-5.68 -12.03,-11.1 -13.89,-12.05c-7.03,-3.57 -8.68,-6.37 -18.04,-30.47c-6.29,-16.24 -9.89,-19.86 -17.76,-17.85c-10,2.55 -15.94,-6.93 -32.97,-52.56c-6.13,-16.44 -6.13,-16.18 0.25,-21.22c7.92,-6.25 20.02,-6.27 29.04,-0.04c6.98,4.82 9.05,3.6 8.75,-5.12c-0.31,-8.69 -1.14,-8.58 9.11,-1.26c16.33,11.65 68.22,15.34 88.49,6.29c6.92,-3.08 6.88,-2.54 0.62,-8.92c-6.5,-6.6 -6.15,-8.36 1.66,-8.36c5.12,0 5.86,-0.3 8.98,-3.63l3.41,-3.63l7.73,0.48c5.52,0.35 11.29,1.7 20.18,4.72c6.85,2.33 15.25,4.48 18.65,4.78l6.21,0.55l3.74,-4.03c2.07,-2.21 5.15,-5.65 6.85,-7.63c2.99,-3.51 3.29,-3.6 10.26,-3.6c5.81,0 8.53,-0.59 14.33,-3.1c18.67,-8.07 22.44,-7.88 42.06,2.03c8.5,4.3 15.21,7.07 17.11,7.07c6.86,0 7.46,0.75 11.52,14.63c12.05,41.12 27.32,53.6 75.65,61.82c20.11,3.42 45.06,6.55 52.28,6.55c2.7,0 4.79,0.82 7.26,2.85c15.26,12.58 23.55,3.27 11.97,-13.45c-5.98,-8.63 -8.56,-14.38 -13.97,-31.06c-9.51,-29.27 -15.31,-35.67 -46.82,-51.62c-21.65,-10.96 -54.3,-16.34 -94.11,-15.5l-12.95,0.28l-14.27,-5.75c-17.56,-7.08 -20.32,-7.23 -40.19,-2.21c-18.45,4.67 -39.43,6.84 -58.08,6.02c-49.68,-2.18 -49.97,-2.16 -56.84,3.82c-3.72,3.23 -3.85,3.55 -2.76,6.51c1.38,3.71 -0.25,4.32 -3.12,1.15c-5.6,-6.22 -11.61,-8.83 -21.56,-9.36c-11.83,-0.63 -16.82,-2.82 -19.81,-8.7c-2.25,-4.43 -4.88,-4.99 -13.69,-2.95c-37.32,8.64 -14.84,-67.41 33.98,-115.03c50.27,-49.04 55.06,-54.49 61.64,-70.33c1.64,-3.95 3.14,-7.34 3.32,-7.55c0.19,-0.21 3.74,2.8 7.89,6.69c15.46,14.49 25.27,14.57 46.94,0.39c16.53,-10.82 25.46,-14.19 41.74,-15.75l7.01,-0.67l3.61,5.87c9.33,15.18 14.57,18.54 22.84,14.69c10.14,-4.71 14.01,-1.97 28.83,20.35c29.02,43.72 48.98,59.51 63.17,49.97c12.1,-8.12 18.3,-3.89 27.98,19.05c9.12,21.6 13.24,25.55 24.36,23.36c9.93,-1.96 10.66,-1.28 38.95,36.43c18.63,24.85 29.79,37.5 33.06,37.5c7.93,0 4.68,-20.21 -6.93,-43c-9.41,-18.49 -15.28,-25.28 -49.63,-57.5c-7.63,-7.15 -17.06,-17.05 -20.96,-22c-3.9,-4.95 -10.58,-13.41 -14.83,-18.79c-14.39,-18.21 -26.69,-23.27 -30.9,-12.71c-4.14,10.42 -11.52,4.08 -17.21,-14.78l-2.8,-9.28l-6.48,-1.9c-3.57,-1.05 -12.31,-3.59 -19.43,-5.65c-16.7,-4.83 -16.33,-4.03 -6.14,-13.52c10.59,-9.85 10.99,-9.4 -7.06,-7.83l-14.78,1.29l-5.68,-2.61c-9.1,-4.18 5.39,-15.87 34.4,-27.74c16.34,-6.69 -15.48,3.48 -40.51,12.94c-6,2.27 -11.3,3.98 -11.79,3.82c-1.14,-0.38 4.02,-7.2 23.98,-31.74c19.03,-23.4 19.14,-22.73 -1.49,-8.76c-11.03,7.47 -18.51,11.84 -21.75,12.71c-3.53,0.95 -6.37,2.72 -9.95,6.19c-17.61,17.07 -3.91,-28.26 19.22,-63.64c27.89,-42.83 47.51,-57.49 76.88,-57.49c22.65,0 27.92,8.72 18.43,30.48c-18.5,42.45 -9.57,91.3 22.73,124.26c18.65,19.05 19.01,20.03 3.11,8.61c-23.94,-17.18 -39.29,-17.19 -39.32,-0.02l-0.02,7.82l5.73,6.04c3.15,3.32 16.88,15.08 30.51,26.14c27.3,22.12 39.21,32.89 42.59,38.49c1.22,2.02 3.97,5.71 6.12,8.18c4.84,5.6 7.37,10.49 8.74,16.93c1.52,7.15 3.39,8.97 16.02,15.63c23.23,12.24 38.09,36.81 57.1,94.4c3.32,10.03 3.16,10.25 7.37,-10.26c10.85,-52.73 7.22,-74.12 -15.08,-88.93c-21.86,-14.53 -22.99,-18.06 -11.28,-35.27c9.91,-14.58 9.13,-17.86 -6.4,-27.01c-17.7,-10.42 -17.83,-11.05 -4.75,-24.22c11.36,-11.44 11.66,-11.59 14.84,-7.02c1.23,1.79 7.26,8.5 13.38,14.91c15.86,16.68 16.86,19.24 13.35,34.36c-3.74,16.16 -3,18.66 7.37,24.53c8.42,4.77 8.23,3.86 10.56,50.97c1.94,39.26 3.5,44.85 11.02,39.72l3.42,-2.33l-0.5,-13.94c-1.28,-35.98 -0.55,-65.39 1.89,-75.29c3.24,-13.15 2.68,-19.82 -2.71,-32.35c-8.54,-19.91 -3.47,-28.04 15.26,-24.44l3.98,0.77l-9.83,-9.95c-10.22,-10.35 -19.48,-16.79 -25.5,-17.72c-7.6,-1.18 -10.71,-2.57 -14.85,-6.69c-7.93,-7.86 -10.47,-17.01 -5.35,-19.26c1.23,-0.54 2.24,-1.51 2.24,-2.14c0,-10.33 41.38,-40.58 86.91,-63.54c7.57,-3.82 17.34,-9.39 21.72,-12.39c11.92,-8.15 14.61,-6.89 15.57,7.27c1.66,24.8 -8.52,57.17 -36.59,116.4c-6.09,12.83 -11.3,24.54 -11.59,26.01c-0.57,2.84 -0.32,3.45 18.58,44.38c19.59,42.45 27.25,62.92 26.7,71.41l-0.3,4.58l-10.96,1.85c-15.39,2.6 -16.16,1.48 9.46,13.65c28.78,13.68 32.17,16.79 25.51,23.48c-5.19,5.21 -13.74,2.79 -45.98,-13.01c-15.3,-7.49 -17.37,-9.23 -17.37,-14.56c0,-4.88 -10,4.39 -14.03,13c-1.59,3.4 -4.23,14.1 -3.48,14.1c18.42,0 26.82,5.23 32.83,20.43c5.75,14.53 4.16,22.08 -6.79,32.36c-23.91,22.46 -64.15,22.48 -70.31,0.03c-2.95,-10.71 -11.17,-5.41 -19.38,12.48l-3.3,7.2l1.22,24.5l1.22,24.5l-2.32,6.27c-3.01,8.14 -2.92,10.59 0.55,16.14c2.61,4.18 2.93,5.65 3.46,16.34l0.58,11.75l-3.9,0c-2.15,0 -8.38,-0.71 -13.83,-1.58c-11.05,-1.75 -13.57,-1.21 -14.67,3.2c-2.98,11.91 9.07,34.98 22.65,43.37c5.96,3.67 6.13,5.56 1.59,16.84c-11.51,28.63 -29.97,42.57 -60.5,45.69c-24.96,2.56 -76.65,-28.84 -87.63,-53.23c-1.68,-3.73 -4.42,-8.49 -6.08,-10.57l-3.03,-3.79l6.3,0.54c42.04,3.62 44.88,3.77 45.74,2.4c1.78,-2.82 3.96,-2.46 -32.47,-5.35c-68.09,-5.4 -120.88,-0.69 -157.85,14.08c-20.63,8.23 -60.07,-7.23 -94.06,-36.87l-3.92,-3.43l0.25,-14.4c0.86,-50.23 3.5,-53.22 36.89,-41.9c22.01,7.47 24.59,6.99 34.75,-6.38c2.29,-3.01 6.95,-4.49 14.46,-4.57c2.45,-0.03 4.94,-0.92 7,-2.5c6.15,-4.71 16.45,-8.71 28.76,-11.17c12.93,-2.59 16.26,-4.06 17.69,-7.84c0.5,-1.3 4.48,-5.1 8.86,-8.45c17.63,-13.47 6.2,-13.48 -44.2,-0.01c-38.72,10.34 -53.26,11.8 -82.96,8.33c-32.07,-3.75 -51.8,1.38 -46.7,12.13c2.67,5.62 2.24,7.23 -2.26,8.45c-3.99,1.08 -7.01,3.31 -7.01,5.18c0,13.57 -7.87,9.83 -19.05,-9.05c-6.87,-11.59 -13.55,-20.12 -15.78,-20.12c-2.06,0 12.4,28.83 23.17,46.14c26.81,43.17 68.47,81.58 104.55,96.41c10.05,4.13 10.47,2.79 -3.93,12.36c-13.35,8.87 -13.86,9.35 -11.87,11.01c1.09,0.91 3.04,-0.04 9.2,-4.49c4.3,-3.1 10.81,-7.41 14.44,-9.58l6.62,-3.95l11.3,1.68c12.85,1.91 43.56,1.44 60.45,-0.93l9.3,-1.3l11.11,4.04c6.11,2.21 18.51,7.83 27.55,12.47c54.55,28.04 59.42,30.07 78.68,32.75c20.02,2.8 55.65,2.26 68.72,-1.03c25.33,-6.38 41.3,-13.65 42.37,-19.29c0.02,-0.11 2.04,0.52 4.48,1.4c9.96,3.59 28.37,1.83 40.44,-3.86l4.26,-2.02l8.25,6.01c4.54,3.31 11.59,8.53 15.67,11.6c4.99,3.77 7.99,5.41 9.21,5.02c13.05,-4.16 -79.79,45.07 -107.75,57.13c-43.32,18.7 -105.52,38.79 -170.24,54.99l-11.4,2.85l-18.97,-2.74c-77.24,-11.18 -125.56,-33.31 -184.63,-84.59c-16.89,-14.66 -17.31,-14.85 -13.59,-6.45c1.65,3.73 2.41,6.86 2.07,8.57c-0.43,2.19 0.09,3.2 2.67,5.24c3.68,2.92 2.27,3.25 -4.21,0.98c-5.89,-2.06 -15.76,-1.98 -20.6,0.15c-2.75,1.21 -8.17,1.9 -18.79,2.4c-18.01,0.84 -21.06,1.94 -30.97,11.2c-13.49,12.6 -15.14,13.68 -25.63,16.93c-15.12,4.69 -23.82,15.47 -34.18,42.31c-5.39,13.98 -6.01,14.99 -16.72,27.33l-8.02,9.23l-63.63,0.02l-63.63,0.01l0.58,-4.93l0.13,-0.05zm659.98,-224.05c3.04,-1.93 -11.55,-13.77 -25.98,-21.08c-57.01,-28.9 -188.87,-43.99 -291.46,-33.36c-5.29,0.55 -10.14,4.44 -5.48,4.4c0.41,0 8.81,-0.65 18.67,-1.43c119.45,-9.53 258.49,12.28 295.44,46.33c3.65,3.36 6.78,6.1 6.97,6.09c0.19,0 1.02,-0.44 1.83,-0.95zm124,-139.85c18.04,-5.39 34.3,-19.63 33.15,-29.01c-0.31,-2.56 -0.43,-2.48 -2.62,1.67c-2.86,5.41 -3.33,5.02 -2.24,-1.87l0.86,-5.42l-7.61,8.04c-14.45,15.27 -22.29,18.77 -42.21,18.85c-6.98,0.03 -12.69,0.28 -12.68,0.55c0.3,6.99 19.89,11.21 33.34,7.19zm-5.98,-15.08c21.72,-6.36 38.5,-25.11 30.35,-33.91c-13.12,-14.13 -55.67,-1.33 -63.2,19.01c-5.04,13.62 11.53,21.14 32.86,14.9zm85.15,-50.95c0,-2.37 -14.83,-10.16 -38.2,-20.06c-13.35,-5.66 -13.81,-5.76 -13.41,-2.94c0.72,5.11 51.62,27.79 51.62,23zm-236.32,-21.96c2.27,-1.45 -23.2,-30.29 -41.04,-46.48c-47.04,-42.67 -95.75,-65.01 -185.74,-85.19c-9.04,-2.03 -17.17,-3.89 -18.06,-4.14c-1.01,-0.27 -1.81,0.3 -2.13,1.53c-0.46,1.76 0.5,2.19 9.08,4.1c116.62,25.87 170.21,54.2 225.45,119.2c10.37,12.19 10.44,12.26 12.44,10.98zm-58.15,-6.32c0.58,-2.21 1.34,-1.83 -23.13,-11.28c-107.32,-41.43 -197.31,-54.43 -276.72,-39.96c-2.86,0.52 -5.09,4.41 -2.49,4.34c0.41,-0.01 7.47,-0.9 15.69,-1.98c84.19,-11.06 171.71,3.76 276.53,46.84c9.01,3.71 9.65,3.83 10.12,2.04zm25.08,312.04c-21.29,-2.61 -25.2,-4.19 -77.18,-31.03c-11.23,-5.8 -24.29,-11.94 -29.03,-13.65l-8.61,-3.11l-19.45,0.6c-18.53,0.57 -38.75,-0.71 -42.36,-2.67c-2.02,-1.11 24.15,-9.52 38.7,-12.44c31.77,-6.38 99.3,-9.29 91.7,-3.95c-10.94,7.7 34.59,50.1 67.56,62.92c10.81,4.21 -0.18,5.92 -21.33,3.33zm116.99,-20.88c-1.35,-0.71 -2.58,-1.39 -2.72,-1.5c-0.14,-0.12 1.39,-1.97 3.42,-4.12c2.02,-2.14 5.85,-8.51 8.51,-14.15c5.68,-12.08 4.99,-11.67 7.61,-4.45c2.48,6.84 7.38,12.92 13.59,16.86c2.46,1.56 4.48,3.35 4.48,3.97c0.01,4.32 -27.93,7.03 -34.89,3.38l0,0.01zm106.06,-114.27c0.42,-25.44 1.05,-49.38 1.39,-53.2l0.64,-6.95l5.48,-1.67c3.02,-0.92 16.61,-5.14 30.22,-9.38c32.54,-10.14 32.91,-10.85 -7.54,14.5c-9.17,5.74 -16.88,11.12 -17.15,11.94c-0.39,1.23 -12.5,88.89 -12.5,90.51c0,0.27 -0.3,0.49 -0.66,0.49c-0.35,0 -0.3,-20.81 0.11,-46.25l0.01,0.01zm-226.28,-56.37c-4.52,-0.31 -8.22,-0.76 -8.22,-1c0,-0.25 1.82,-2.76 4.05,-5.59c6.07,-7.71 7.98,-12.18 10.39,-24.29l2.18,-11l3.19,10.5c1.75,5.77 4.73,15.1 6.62,20.73c1.89,5.63 3.45,10.64 3.45,11.13c0,0.86 -2.84,0.8 -21.66,-0.48zm-38.73,-3.35c-29.01,-6.84 -31.88,-52.39 -4.26,-67.48c13.53,-7.4 43.44,5.99 39.51,17.68c-0.24,0.72 -1.12,-0.06 -2.01,-1.79c-13.93,-26.86 -48.08,-14.73 -48.08,17.06c0,30.3 28.38,43.32 45.63,20.92c4.96,-6.43 6.14,-5.42 1.73,1.48c-9.59,15.01 -13.75,16.56 -32.57,12.13l0.05,0zm-30.91,-10.01c-18.03,-8.48 -35.35,-37.55 -33.88,-56.87c0.69,-9.04 -0.89,-8.61 27.56,-7.47c28.95,1.16 27.62,0.67 21.14,7.78c-12.25,13.46 -15.85,34.69 -8.75,51.53c1.5,3.58 2.98,7.07 3.27,7.75c0.79,1.88 -0.14,1.61 -9.33,-2.72zm44.54,-8.66c-8.51,-5.04 -7.89,-20.58 0.99,-25.09c10.85,-5.51 21.59,6.9 16.52,19.09c-2.91,6.99 -11.1,9.8 -17.51,6zm344.02,-14.27c3.38,-3.26 36.67,-15.23 51.49,-18.51c8.86,-1.97 8.77,-0.7 0.99,-13.37c-5.96,-9.69 -5.88,-9.67 10.47,2.6c12.73,9.55 13.96,10.73 11.95,11.49c-10.62,3.96 -76.88,19.7 -74.89,17.79zm152.77,-7.48c-3.58,-2.44 -7.87,-9 -6.67,-10.2c0.36,-0.36 2.8,1.23 5.41,3.54c4.45,3.93 7.41,4.05 3.9,0.16c-2.49,-2.76 -2,-3.11 4.38,-3.11c7.04,0 6.87,-0.45 2.46,6.48c-3.97,6.25 -4.61,6.45 -9.48,3.13zm-42.01,-56.29c-11.3,-1.49 -14.5,-1.53 -27.74,-0.38c-19.05,1.66 -19.18,1.23 -1.21,-3.82c19.12,-5.37 22.55,-5.37 34.78,0.04c14.51,6.41 14.01,6.77 -5.84,4.16zm533.04,446.18l0,-3.5l-87.11,0l-87.12,0l-1.51,2.95c-0.84,1.62 -1.52,3.2 -1.52,3.5c0.01,0.3 39.9,0.55 88.65,0.55l88.64,0l0,-3.5l-0.01,0zm-621.01,-113.75c0.26,-1.24 0.98,-5.63 1.59,-9.75c12.14,-81.51 80.3,-162.04 156.3,-184.67c1.41,-0.42 -7.46,-5.91 -54.25,-33.51c-44.2,-26.07 -54.65,-28.75 -84.88,-21.76c-35.69,8.25 -77.1,54.79 -94.27,105.94c-4.36,13 -11.89,51 -10.1,51c0.09,0 2.3,-0.73 4.9,-1.62c22.33,-7.64 33.52,10.36 24.62,39.62c-3.51,11.52 -7.15,6.81 26.31,34c31.05,25.25 29.12,23.9 29.78,20.75zm-22.35,-339.24c0,-0.7 -30.37,-15.83 -36.12,-18c-11.2,-4.23 -4.58,0.18 13.47,8.99c17.47,8.51 22.65,10.57 22.65,9.01z" fill="#ffff00" id="path4713"/>
  <text fill="#000000" font-family="Fantasy" font-size="300" id="svg_1" stroke-width="0" text-anchor="middle" transform="matrix(1 0 0 1 0 0) matrix(1.07642 0 0 1.58761 -98.9335 134.324)" x="3056.51" xml:space="preserve" y="168.72">TAKE FLY VIDEO</text>
  <text fill="#000000" font-family="Fantasy" font-size="300" id="svg_2" stroke-width="0" text-anchor="middle" transform="matrix(1 0 0 1 0 0)" x="3429.41" xml:space="preserve" y="733.44">O CÉU NÃO TEM LIMITES</text>
 </g>
</svg>